<?xml version="1.0" encoding="UTF-8" standalone="no"?>
<!-- Created with Inkscape (http://www.inkscape.org/) -->

<svg
   xmlns:dc="http://purl.org/dc/elements/1.1/"
   xmlns:cc="http://creativecommons.org/ns#"
   xmlns:rdf="http://www.w3.org/1999/02/22-rdf-syntax-ns#"
   xmlns:svg="http://www.w3.org/2000/svg"
   xmlns="http://www.w3.org/2000/svg"
   xmlns:sodipodi="http://sodipodi.sourceforge.net/DTD/sodipodi-0.dtd"
   xmlns:inkscape="http://www.inkscape.org/namespaces/inkscape"
   width="793.70081"
   height="1122.5197"
   viewBox="0 0 210 297"
   version="1.1"
   id="svg8"
   sodipodi:docname="footballs-1.svg"
   inkscape:version="0.92.2 5c3e80d, 2017-08-06"
   style="enable-background:new">
  <defs
     id="defs2" />
  <sodipodi:namedview
     id="base"
     pagecolor="#ffffff"
     bordercolor="#666666"
     borderopacity="1.0"
     inkscape:pageopacity="0.0"
     inkscape:pageshadow="2"
     inkscape:zoom="0.48101173"
     inkscape:cx="49.751214"
     inkscape:cy="888.23772"
     inkscape:document-units="mm"
     inkscape:current-layer="layer1"
     showgrid="false"
     showguides="true"
     inkscape:guide-bbox="true"
     inkscape:window-width="1280"
     inkscape:window-height="699"
     inkscape:window-x="-2"
     inkscape:window-y="0"
     inkscape:window-maximized="0"
     inkscape:measure-start="628.243,918.746"
     inkscape:measure-end="597.763,988.326"
     units="px" />
  <metadata
     id="metadata5">
    <rdf:RDF>
      <cc:Work
         rdf:about="">
        <dc:format>image/svg+xml</dc:format>
        <dc:type
           rdf:resource="http://purl.org/dc/dcmitype/StillImage" />
        <dc:title></dc:title>
      </cc:Work>
    </rdf:RDF>
  </metadata>
  <g
     inkscape:groupmode="layer"
     id="layer2"
     inkscape:label="Layer 2"
     style="opacity:1">
    <g
       id="f-monday"
       inkscape:label="#f-monday">
      <path
         style="stroke-width:0.15203556"
         id="path13343"
         d="m 88.737168,20.550428 c -0.608346,-2.696173 -2.932028,-4.879694 -5.7743,-5.430322 -8.282479,-1.585426 -16.629783,-1.409795 -24.623048,0.208859 -0.124661,0.02848 -0.249323,0.03323 -0.368997,0.0807 C 46.816153,17.740337 36.399477,22.9618 28.05716,30.907918 19.714843,38.849289 14.224771,48.77007 11.776428,59.383881 c -0.04986,0.113923 -0.05984,0.237339 -0.08976,0.356009 -1.7003766,7.609096 -1.884875,15.555214 -0.219403,23.430131 0.57344,2.710414 2.867203,4.917669 5.709475,5.49203 4.223516,0.859168 8.466978,1.281632 12.675535,1.281632 15.802033,0 31.08049,-5.919241 42.544319,-16.827353 8.342317,-7.941371 13.802471,-17.838418 16.210922,-28.423748 0.159566,-0.327528 0.249322,-0.669297 0.249322,-1.025306 1.560756,-7.518907 1.620594,-15.351102 -0.119674,-23.116843 z M 18.213924,84.01969 C 17.306392,83.834566 16.543466,83.103561 16.358968,82.234899 15.157235,76.562491 15.05252,70.856855 15.770568,65.288877 L 36.219965,84.755442 C 30.296072,85.410498 24.232559,85.249107 18.213924,84.01969 Z M 68.871184,69.760348 C 61.406481,76.866285 52.141673,81.575096 42.22364,83.758617 L 16.842653,59.597482 C 19.181294,50.156126 24.137817,41.35084 31.582574,34.26389 39.027331,27.181687 48.257235,22.425409 58.155321,20.199166 L 83.566228,44.388783 C 81.272464,53.834885 76.335887,62.649664 68.871184,69.760348 Z M 84.61338,38.673653 64.124092,19.169114 c 2.253871,-0.26582 4.522702,-0.446198 6.806493,-0.446198 3.665034,0 7.364974,0.346516 11.039981,1.04904 0.917506,0.175631 1.690404,0.901889 1.884875,1.77055 1.281516,5.72937 1.451055,11.496714 0.757939,17.131147 z"
         inkscape:connector-curvature="0" />
    </g>
    <path
       inkscape:connector-curvature="0"
       d="m 70.270744,37.683955 c -1.62105,1.027308 0.04284,-0.03188 3.895424,-2.238692 0.128666,-0.0737 -0.252077,0.156316 -0.375929,0.237877 -0.346344,0.22808 -0.689075,0.463729 -1.029465,0.700672 -0.602269,0.416561 -1.14254,0.910767 -1.69298,1.392638 -0.629197,0.561026 -1.265942,1.112599 -1.894505,1.674742 -0.743506,0.71794 -1.484429,1.439631 -2.198333,2.187386 -0.748588,0.733954 -1.447148,1.512581 -2.107504,2.326625 -0.69677,0.867971 -1.364169,1.761175 -2.074952,2.617213 -0.681357,0.750296 -1.309692,1.550857 -2.020276,2.273825 -0.670338,0.663869 -1.389423,1.27139 -2.113814,1.874782 -0.685,0.563069 -1.384698,1.104881 -2.096243,1.633791 -0.653471,0.552937 -1.370974,1.018224 -2.087549,1.483375 -0.712556,0.50739 -1.448788,0.977477 -2.118957,1.541333 -0.692057,0.657998 -1.454102,1.236081 -2.165382,1.872209 -0.78601,0.730625 -1.576779,1.45417 -2.380409,2.165307 -0.847357,0.709055 -1.747813,1.345279 -2.575296,2.078443 -0.73677,0.672359 -1.579566,1.209284 -2.363736,1.822253 -0.585374,0.450481 -1.178611,0.891965 -1.745745,1.365535 -0.529389,0.460829 -1.028176,0.955901 -1.565428,1.407597 -0.476428,0.440214 -0.964373,0.867227 -1.444728,1.30316 -1.935793,1.418184 -4.052478,2.50592 -6.136927,3.713311 -0.09975,0.04597 -0.394171,0.193182 -0.299234,0.137924 1.303458,-0.758691 5.242151,-2.985378 3.932787,-2.236966 -1.582131,0.90432 -3.158874,1.818479 -4.754476,2.698716 -1.417348,0.781898 2.806482,-1.614248 4.219663,-2.403678 0.09311,-0.05201 -0.171557,0.126825 -0.25734,0.190239 -15.288493,9.324128 2.803895,-2.103837 -0.957347,0.624303 -1.745186,1.050695 -0.128552,0.07838 -4.879616,2.866768 10.789175,-6.300439 -0.382848,0.388205 -1.17626,0.594831 -0.171041,-0.01158 -0.630689,0.147332 -0.782056,0.06513 -0.06589,-0.03578 -0.106369,-0.105819 -0.159554,-0.158729 0,0 4.4185,-2.889219 4.4185,-2.889219 v 0 c -0.0057,-0.02683 -0.03604,-0.06079 -0.01699,-0.08048 0.04688,-0.04848 0.633415,-0.05051 0.672557,-0.165513 1.671472,-0.776194 0.102738,-0.05372 -4.135524,2.41288 -0.05852,0.03406 0.12498,-0.05408 0.181065,-0.09202 0.717535,-0.48548 -0.419132,0.199291 0.397214,-0.273661 1.551972,-0.89914 3.10279,-1.80028 4.654184,-2.700422 -1.406374,0.827145 -2.802279,1.672426 -4.219123,2.481435 -0.07154,0.04085 0.109677,-0.124955 0.176518,-0.173132 0.142214,-0.1025 0.291836,-0.194554 0.442558,-0.284019 0.610534,-0.362398 11.116533,-6.500605 0.544312,-0.322422 2.027163,-1.299597 -4.072413,2.606114 4.948747,-2.925508 1.367928,-0.838788 -2.764958,1.629051 -4.15456,2.431275 -0.09358,0.05403 0.172287,-0.131435 0.265497,-0.186102 4.170598,-2.445977 3.139143,-1.888738 4.975448,-2.873769 -7.653168,4.46439 -4.368373,2.633767 -2.727293,1.467766 0.554546,-0.323375 0.961644,-0.861435 1.466713,-1.258053 0.684514,-0.656922 -0.186952,0.156005 0.539288,-0.447498 1.028538,-0.854714 -0.51516,0.377971 0.469443,-0.503972 0.08905,-0.07976 0.198317,-0.133442 0.297477,-0.200161 0.08659,-0.07781 0.173185,-0.155613 0.259779,-0.233417 0.502695,-0.564553 1.170674,-0.963597 1.759055,-1.431412 0.787576,-0.619694 1.613647,-1.182865 2.402637,-1.798058 0.815979,-0.758087 1.691716,-1.429072 2.585374,-2.092236 0.80194,-0.695832 1.574646,-1.419676 2.365161,-2.126201 0.645233,-0.69708 1.4454,-1.238021 2.156444,-1.867519 0.583208,-0.672017 1.364274,-1.106901 2.086723,-1.615205 0.67424,-0.537459 1.473907,-0.880282 2.101899,-1.481919 0.355474,-0.262046 0.698865,-0.549231 1.06131,-0.801036 0.123715,-0.08595 0.266469,-0.144493 0.382538,-0.240553 0.112555,-0.09315 0.186413,-0.227104 0.29738,-0.322152 0.110003,-0.09423 0.240633,-0.161164 0.360953,-0.241746 0.733194,-0.605776 1.473046,-1.178824 2.135383,-1.857536 0.790248,-0.640097 1.362553,-1.495715 2.048695,-2.234819 0.782471,-0.775126 1.380654,-1.738111 2.082555,-2.58594 0.662609,-0.827073 1.33218,-1.643159 2.092672,-2.380586 0.522126,-0.495898 0.276568,-0.229705 0.734972,-0.800156 0.123972,-0.123253 0.285139,-0.20391 0.412625,-0.323513 0.358098,-0.335954 0.617192,-0.77499 1.025476,-1.060598 0.416671,-0.439336 0.931121,-0.763152 1.350797,-1.193695 0.08544,-0.08766 0.135151,-0.206703 0.223226,-0.291706 0.08266,-0.07978 0.188575,-0.131162 0.282862,-0.196742 0.187433,-0.171561 0.360811,-0.359766 0.561448,-0.515618 0.0885,-0.06875 0.198853,-0.106846 0.284196,-0.17949 0.286297,-0.243695 0.442884,-0.618608 0.835965,-0.73122 0.328723,-0.28363 0.686173,-0.480325 1.038486,-0.731277 1.69457,-1.207035 3.527862,-2.210172 5.3741,-3.175092 0,0 -4.092573,3.280122 -4.092573,3.280122 z"
       id="path13442"
       style="opacity:1;fill:none;fill-opacity:1;stroke:none;stroke-width:0.89520478;stroke-miterlimit:4;stroke-dasharray:none;stroke-opacity:1" />
    <path
       inkscape:connector-curvature="0"
       id="path13444"
       d="m 29.699611,70.67259 c 82.390439,-79.280015 0,0 0,0 z"
       style="fill:#000000;fill-opacity:1;stroke:#000000;stroke-width:2.79154468;stroke-linecap:butt;stroke-linejoin:miter;stroke-miterlimit:4;stroke-dasharray:none;stroke-opacity:1" />
    <g
       transform="matrix(0.1558263,0,0,0.14833703,108.8085,15.707534)"
       id="f-tuesday">
      <g
         id="g17752" />
      <g
         id="g17754" />
      <g
         id="g17756" />
      <g
         id="g17758" />
      <g
         id="g17760" />
      <g
         id="g17762" />
      <g
         id="g17764" />
      <g
         id="g17766" />
      <g
         id="g17768" />
      <g
         id="g17770" />
      <g
         id="g17772" />
      <g
         id="g17774" />
      <g
         id="g17776" />
      <g
         id="g17778" />
      <g
         id="g17780" />
      <path
         inkscape:connector-curvature="0"
         d="m 384.89854,159.53704 c -10.40293,6.9255 0.27489,-0.21489 24.9985,-15.09193 0.8257,-0.49684 -1.61768,1.05379 -2.41249,1.60363 -2.22263,1.53758 -4.42207,3.12618 -6.60649,4.72351 -3.865,2.80821 -7.33214,6.13985 -10.86453,9.38834 -4.03781,3.7821 -8.12406,7.50048 -12.1578,11.29011 -4.77138,4.83993 -9.52618,9.70514 -14.10759,14.74606 -4.80399,4.94788 -9.28693,10.19692 -13.5247,15.68472 -4.47145,5.85134 -8.75442,11.87279 -13.3158,17.64369 -4.37254,5.05805 -8.40482,10.45496 -12.96492,15.32878 -4.30183,4.47541 -8.91649,8.57095 -13.5652,12.63866 -4.39592,3.79588 -8.88616,7.44845 -13.45243,11.01405 -4.19359,3.72757 -8.79809,6.86426 -13.39664,10.00003 -4.57276,3.42052 -9.29746,6.58957 -13.5982,10.39075 -4.44121,4.43583 -9.33156,8.33292 -13.89613,12.62132 -5.04414,4.92544 -10.11882,9.80315 -15.27604,14.59721 -5.43783,4.78003 -11.21642,9.06907 -16.52671,14.01163 -4.72815,4.53264 -10.13671,8.15227 -15.16904,12.28454 -3.75658,3.03688 -7.56362,6.0131 -11.20315,9.20563 -3.3973,3.10663 -6.59822,6.44411 -10.04598,9.48918 -3.05743,2.96766 -6.18877,5.84633 -9.2714,8.78513 -12.42276,9.56055 -26.00638,16.89342 -39.38313,25.03293 -0.6401,0.30994 -2.52955,1.30232 -1.9203,0.9298 8.36481,-5.11464 33.64099,-20.12564 25.23827,-15.08029 -10.15317,6.09639 -20.27176,12.2591 -30.51138,18.19314 -9.09569,5.27109 18.01032,-10.8823 27.07927,-16.20417 0.59751,-0.35064 -1.10095,0.85498 -1.65145,1.28248 -98.112404,62.85772 17.99372,-14.18282 -6.14368,4.20868 -11.19956,7.08316 -0.82497,0.52838 -31.31446,19.32604 69.23847,-42.47381 -2.45689,2.61705 -7.54853,4.01 -1.09764,-0.0781 -4.04739,0.99322 -5.01877,0.43908 -0.42285,-0.24122 -0.68261,-0.71337 -1.02392,-1.07006 0,0 28.35529,-19.47739 28.35529,-19.47739 v 0 c -0.0363,-0.18087 -0.23126,-0.40982 -0.10903,-0.54257 0.30088,-0.32684 4.06488,-0.34049 4.31607,-1.11579 10.72651,-5.23264 0.65931,-0.36217 -26.53932,16.2662 -0.37554,0.22959 0.80205,-0.36455 1.16197,-0.62037 4.60471,-3.27282 -2.68974,1.3435 2.54908,-1.84486 9.95963,-6.06147 19.91185,-12.13642 29.86777,-18.20464 -9.02527,5.57612 -17.98335,11.2745 -27.07581,16.72836 -0.45908,0.27537 0.70384,-0.84237 1.13279,-1.16715 0.91264,-0.691 1.87283,-1.31157 2.84007,-1.91469 3.91804,-2.44307 71.33926,-43.82321 3.49307,-2.17358 13.00912,-8.76111 -26.13431,17.56887 31.7581,-19.72203 8.77854,-5.65461 -17.74385,10.98209 -26.66148,16.39021 -0.60056,0.36422 1.10563,-0.88606 1.7038,-1.25459 26.7644,-16.48932 20.14514,-12.73275 31.92945,-19.37324 -49.11346,30.09626 -28.03361,17.75529 -17.50214,9.8948 3.55875,-2.18 6.17126,-5.80728 9.41249,-8.48104 4.3928,-4.42858 -1.19975,1.05169 3.46083,-3.01677 6.60054,-5.76197 -3.30599,2.54806 3.0126,-3.39748 0.57145,-0.53771 1.27268,-0.89958 1.90903,-1.34936 0.5557,-0.52453 1.1114,-1.04905 1.66711,-1.57356 3.22599,-3.80588 7.51268,-6.496 11.28856,-9.64973 5.05419,-4.17761 10.35542,-7.97417 15.41869,-12.12144 5.23646,-5.11057 10.85642,-9.63395 16.59138,-14.10461 5.14637,-4.69088 10.10514,-9.57061 15.17819,-14.33358 4.14072,-4.6993 9.27571,-8.346 13.83877,-12.5897 3.74268,-4.53034 8.75509,-7.46207 13.39134,-10.88875 4.32687,-3.62323 9.45865,-5.93434 13.48873,-9.99022 2.28122,-1.76656 4.4849,-3.70259 6.81085,-5.40011 0.79393,-0.57942 1.71004,-0.97408 2.4549,-1.62166 0.72231,-0.62798 1.19629,-1.531 1.90841,-2.17176 0.70593,-0.63521 1.54424,-1.08647 2.31638,-1.62971 4.7052,-4.08378 9.45313,-7.94693 13.70361,-12.5224 5.07134,-4.31515 8.74405,-10.08322 13.1473,-15.06582 5.02143,-5.22544 8.86021,-11.71731 13.36459,-17.43287 4.25223,-5.57563 8.54914,-11.0772 13.42952,-16.04849 3.35069,-3.34305 1.77485,-1.54854 4.71661,-5.39418 0.79558,-0.8309 1.82985,-1.37464 2.64798,-2.18093 2.29806,-2.2648 3.96077,-5.22452 6.58089,-7.14992 2.67395,-2.96174 5.97538,-5.14472 8.66861,-8.04718 0.54832,-0.59093 0.86732,-1.39347 1.43253,-1.96651 0.53049,-0.53786 1.21016,-0.88422 1.81524,-1.32632 1.20283,-1.15656 2.31547,-2.42533 3.60304,-3.47599 0.56794,-0.46345 1.27612,-0.72029 1.8238,-1.21001 1.83728,-1.64285 2.84216,-4.17029 5.36472,-4.92945 2.10955,-1.91207 4.40345,-3.23807 6.66438,-4.92984 10.87474,-8.13711 22.63971,-14.89966 34.48776,-21.40458 0,0 -26.26368,22.11263 -26.26368,22.11263 z"
         id="path17782"
         style="opacity:1;fill:none;fill-opacity:1;stroke:none;stroke-width:5.8881278;stroke-miterlimit:4;stroke-dasharray:none;stroke-opacity:1" />
      <g
         id="football-2">
        <g
           id="g17748">
          <path
             inkscape:connector-curvature="0"
             d="M 503.405,44.033 C 499.501,25.857 484.589,11.137 466.349,7.425 413.197,-3.263 359.629,-2.079 308.333,8.833 c -0.8,0.192 -1.6,0.224 -2.368,0.544 -71.584,15.712 -138.432,50.912 -191.968,104.48 -53.536,53.536 -88.768,120.416 -104.48,191.968 -0.32,0.768 -0.384,1.6 -0.576,2.4 -10.912,51.296 -12.096,104.864 -1.408,157.952 3.68,18.272 18.4,33.152 36.64,37.024 27.104,5.792 54.336,8.64 81.344,8.64 101.408,0 199.456,-39.904 273.024,-113.44 53.536,-53.536 88.576,-120.256 104.032,-191.616 1.024,-2.208 1.6,-4.512 1.6,-6.912 10.016,-50.688 10.4,-103.488 -0.768,-155.84 z M 50.829,471.905 c -5.824,-1.248 -10.72,-6.176 -11.904,-12.032 -7.712,-38.24 -8.384,-76.704 -3.776,-114.24 l 131.232,131.232 c -38.016,4.416 -76.928,3.328 -115.552,-4.96 z m 325.088,-96.128 c -47.904,47.904 -107.36,79.648 -171.008,94.368 L 42.029,307.265 C 57.037,243.617 88.845,184.257 136.621,136.481 184.397,88.737 243.629,56.673 307.149,41.665 l 163.072,163.072 c -14.72,63.68 -46.4,123.104 -94.304,171.04 z M 476.941,166.209 345.453,34.721 c 14.464,-1.792 29.024,-3.008 43.68,-3.008 23.52,0 47.264,2.336 70.848,7.072 5.888,1.184 10.848,6.08 12.096,11.936 8.224,38.624 9.312,77.504 4.864,115.488 z"
             id="path17746" />
        </g>
        <path
           style="fill:#000000;fill-opacity:1;stroke:#000000;stroke-width:18.36112976;stroke-linecap:butt;stroke-linejoin:miter;stroke-miterlimit:4;stroke-dasharray:none;stroke-opacity:1"
           d="m 124.53727,381.92679 c 528.73255,-534.45869 0,0 0,0 z"
           id="path17784"
           inkscape:connector-curvature="0" />
      </g>
    </g>
    <g
       id="f-wednesday"
       transform="matrix(0.1558263,0,0,0.14833703,10.169577,96.613732)"
       inkscape:label="#f-wednesday">
      <g
         id="g17792">
        <g
           id="g17790">
          <path
             id="path17788"
             d="M 503.405,44.033 C 499.501,25.857 484.589,11.137 466.349,7.425 413.197,-3.263 359.629,-2.079 308.333,8.833 c -0.8,0.192 -1.6,0.224 -2.368,0.544 -71.584,15.712 -138.432,50.912 -191.968,104.48 -53.536,53.536 -88.768,120.416 -104.48,191.968 -0.32,0.768 -0.384,1.6 -0.576,2.4 -10.912,51.296 -12.096,104.864 -1.408,157.952 3.68,18.272 18.4,33.152 36.64,37.024 27.104,5.792 54.336,8.64 81.344,8.64 101.408,0 199.456,-39.904 273.024,-113.44 53.536,-53.536 88.576,-120.256 104.032,-191.616 1.024,-2.208 1.6,-4.512 1.6,-6.912 10.016,-50.688 10.4,-103.488 -0.768,-155.84 z M 50.829,471.905 c -5.824,-1.248 -10.72,-6.176 -11.904,-12.032 -7.712,-38.24 -8.384,-76.704 -3.776,-114.24 l 131.232,131.232 c -38.016,4.416 -76.928,3.328 -115.552,-4.96 z m 325.088,-96.128 c -47.904,47.904 -107.36,79.648 -171.008,94.368 L 42.029,307.265 C 57.037,243.617 88.845,184.257 136.621,136.481 184.397,88.737 243.629,56.673 307.149,41.665 l 163.072,163.072 c -14.72,63.68 -46.4,123.104 -94.304,171.04 z M 476.941,166.209 345.453,34.721 c 14.464,-1.792 29.024,-3.008 43.68,-3.008 23.52,0 47.264,2.336 70.848,7.072 5.888,1.184 10.848,6.08 12.096,11.936 8.224,38.624 9.312,77.504 4.864,115.488 z"
             inkscape:connector-curvature="0" />
        </g>
      </g>
      <g
         id="g17794" />
      <g
         id="g17796" />
      <g
         id="g17798" />
      <g
         id="g17800" />
      <g
         id="g17802" />
      <g
         id="g17804" />
      <g
         id="g17806" />
      <g
         id="g17808" />
      <g
         id="g17810" />
      <g
         id="g17812" />
      <g
         id="g17814" />
      <g
         id="g17816" />
      <g
         id="g17818" />
      <g
         id="g17820" />
      <g
         id="g17822" />
      <path
         style="opacity:1;fill:none;fill-opacity:1;stroke:none;stroke-width:5.8881278;stroke-miterlimit:4;stroke-dasharray:none;stroke-opacity:1"
         id="path17824"
         d="m 384.89854,159.53704 c -10.40293,6.9255 0.27489,-0.21489 24.9985,-15.09193 0.8257,-0.49684 -1.61768,1.05379 -2.41249,1.60363 -2.22263,1.53758 -4.42207,3.12618 -6.60649,4.72351 -3.865,2.80821 -7.33214,6.13985 -10.86453,9.38834 -4.03781,3.7821 -8.12406,7.50048 -12.1578,11.29011 -4.77138,4.83993 -9.52618,9.70514 -14.10759,14.74606 -4.80399,4.94788 -9.28693,10.19692 -13.5247,15.68472 -4.47145,5.85134 -8.75442,11.87279 -13.3158,17.64369 -4.37254,5.05805 -8.40482,10.45496 -12.96492,15.32878 -4.30183,4.47541 -8.91649,8.57095 -13.5652,12.63866 -4.39592,3.79588 -8.88616,7.44845 -13.45243,11.01405 -4.19359,3.72757 -8.79809,6.86426 -13.39664,10.00003 -4.57276,3.42052 -9.29746,6.58957 -13.5982,10.39075 -4.44121,4.43583 -9.33156,8.33292 -13.89613,12.62132 -5.04414,4.92544 -10.11882,9.80315 -15.27604,14.59721 -5.43783,4.78003 -11.21642,9.06907 -16.52671,14.01163 -4.72815,4.53264 -10.13671,8.15227 -15.16904,12.28454 -3.75658,3.03688 -7.56362,6.0131 -11.20315,9.20563 -3.3973,3.10663 -6.59822,6.44411 -10.04598,9.48918 -3.05743,2.96766 -6.18877,5.84633 -9.2714,8.78513 -12.42276,9.56055 -26.00638,16.89342 -39.38313,25.03293 -0.6401,0.30994 -2.52955,1.30232 -1.9203,0.9298 8.36481,-5.11464 33.64099,-20.12564 25.23827,-15.08029 -10.15317,6.09639 -20.27176,12.2591 -30.51138,18.19314 -9.09569,5.27109 18.01032,-10.8823 27.07927,-16.20417 0.59751,-0.35064 -1.10095,0.85498 -1.65145,1.28248 -98.112404,62.85772 17.99372,-14.18282 -6.14368,4.20868 -11.19956,7.08316 -0.82497,0.52838 -31.31446,19.32604 69.23847,-42.47381 -2.45689,2.61705 -7.54853,4.01 -1.09764,-0.0781 -4.04739,0.99322 -5.01877,0.43908 -0.42285,-0.24122 -0.68261,-0.71337 -1.02392,-1.07006 0,0 28.35529,-19.47739 28.35529,-19.47739 v 0 c -0.0363,-0.18087 -0.23126,-0.40982 -0.10903,-0.54257 0.30088,-0.32684 4.06488,-0.34049 4.31607,-1.11579 10.72651,-5.23264 0.65931,-0.36217 -26.53932,16.2662 -0.37554,0.22959 0.80205,-0.36455 1.16197,-0.62037 4.60471,-3.27282 -2.68974,1.3435 2.54908,-1.84486 9.95963,-6.06147 19.91185,-12.13642 29.86777,-18.20464 -9.02527,5.57612 -17.98335,11.2745 -27.07581,16.72836 -0.45908,0.27537 0.70384,-0.84237 1.13279,-1.16715 0.91264,-0.691 1.87283,-1.31157 2.84007,-1.91469 3.91804,-2.44307 71.33926,-43.82321 3.49307,-2.17358 13.00912,-8.76111 -26.13431,17.56887 31.7581,-19.72203 8.77854,-5.65461 -17.74385,10.98209 -26.66148,16.39021 -0.60056,0.36422 1.10563,-0.88606 1.7038,-1.25459 26.7644,-16.48932 20.14514,-12.73275 31.92945,-19.37324 -49.11346,30.09626 -28.03361,17.75529 -17.50214,9.8948 3.55875,-2.18 6.17126,-5.80728 9.41249,-8.48104 4.3928,-4.42858 -1.19975,1.05169 3.46083,-3.01677 6.60054,-5.76197 -3.30599,2.54806 3.0126,-3.39748 0.57145,-0.53771 1.27268,-0.89958 1.90903,-1.34936 0.5557,-0.52453 1.1114,-1.04905 1.66711,-1.57356 3.22599,-3.80588 7.51268,-6.496 11.28856,-9.64973 5.05419,-4.17761 10.35542,-7.97417 15.41869,-12.12144 5.23646,-5.11057 10.85642,-9.63395 16.59138,-14.10461 5.14637,-4.69088 10.10514,-9.57061 15.17819,-14.33358 4.14072,-4.6993 9.27571,-8.346 13.83877,-12.5897 3.74268,-4.53034 8.75509,-7.46207 13.39134,-10.88875 4.32687,-3.62323 9.45865,-5.93434 13.48873,-9.99022 2.28122,-1.76656 4.4849,-3.70259 6.81085,-5.40011 0.79393,-0.57942 1.71004,-0.97408 2.4549,-1.62166 0.72231,-0.62798 1.19629,-1.531 1.90841,-2.17176 0.70593,-0.63521 1.54424,-1.08647 2.31638,-1.62971 4.7052,-4.08378 9.45313,-7.94693 13.70361,-12.5224 5.07134,-4.31515 8.74405,-10.08322 13.1473,-15.06582 5.02143,-5.22544 8.86021,-11.71731 13.36459,-17.43287 4.25223,-5.57563 8.54914,-11.0772 13.42952,-16.04849 3.35069,-3.34305 1.77485,-1.54854 4.71661,-5.39418 0.79558,-0.8309 1.82985,-1.37464 2.64798,-2.18093 2.29806,-2.2648 3.96077,-5.22452 6.58089,-7.14992 2.67395,-2.96174 5.97538,-5.14472 8.66861,-8.04718 0.54832,-0.59093 0.86732,-1.39347 1.43253,-1.96651 0.53049,-0.53786 1.21016,-0.88422 1.81524,-1.32632 1.20283,-1.15656 2.31547,-2.42533 3.60304,-3.47599 0.56794,-0.46345 1.27612,-0.72029 1.8238,-1.21001 1.83728,-1.64285 2.84216,-4.17029 5.36472,-4.92945 2.10955,-1.91207 4.40345,-3.23807 6.66438,-4.92984 10.87474,-8.13711 22.63971,-14.89966 34.48776,-21.40458 0,0 -26.26368,22.11263 -26.26368,22.11263 z"
         inkscape:connector-curvature="0" />
      <path
         style="fill:#000000;fill-opacity:1;stroke:#000000;stroke-width:18.36112976;stroke-linecap:butt;stroke-linejoin:miter;stroke-miterlimit:4;stroke-dasharray:none;stroke-opacity:1"
         d="m 124.53727,381.92679 c 528.73255,-534.45869 0,0 0,0 z"
         id="path17826"
         inkscape:connector-curvature="0" />
    </g>
    <g
       id="g18852"
       transform="matrix(0.1558263,0,0,0.14833703,108.07312,104.95334)" />
    <g
       id="g18854"
       transform="matrix(0.1558263,0,0,0.14833703,108.07312,104.95334)" />
    <g
       id="g18856"
       transform="matrix(0.1558263,0,0,0.14833703,108.07312,104.95334)" />
    <g
       id="g18858"
       transform="matrix(0.1558263,0,0,0.14833703,108.07312,104.95334)" />
    <g
       id="g18860"
       transform="matrix(0.1558263,0,0,0.14833703,108.07312,104.95334)" />
    <g
       id="g18862"
       transform="matrix(0.1558263,0,0,0.14833703,108.07312,104.95334)" />
    <g
       id="g18864"
       transform="matrix(0.1558263,0,0,0.14833703,108.07312,104.95334)" />
    <g
       id="g18866"
       transform="matrix(0.1558263,0,0,0.14833703,108.07312,104.95334)" />
    <g
       id="g18868"
       transform="matrix(0.1558263,0,0,0.14833703,108.07312,104.95334)" />
    <g
       id="g18870"
       transform="matrix(0.1558263,0,0,0.14833703,108.07312,104.95334)" />
    <g
       id="g18872"
       transform="matrix(0.1558263,0,0,0.14833703,108.07312,104.95334)" />
    <g
       id="g18874"
       transform="matrix(0.1558263,0,0,0.14833703,108.07312,104.95334)" />
    <g
       id="g18876"
       transform="matrix(0.1558263,0,0,0.14833703,108.07312,104.95334)" />
    <g
       id="g18878"
       transform="matrix(0.1558263,0,0,0.14833703,108.07312,104.95334)" />
    <g
       id="g18880"
       transform="matrix(0.1558263,0,0,0.14833703,108.07312,104.95334)" />
    <path
       style="opacity:1;fill:none;fill-opacity:1;stroke:none;stroke-width:0.89520478;stroke-miterlimit:4;stroke-dasharray:none;stroke-opacity:1"
       id="path18882"
       d="m 168.05044,122.26857 c -1.62105,1.02731 0.0428,-0.0319 3.89542,-2.23869 0.12866,-0.0737 -0.25208,0.15631 -0.37593,0.23788 -0.34634,0.22808 -0.68908,0.46372 -1.02947,0.70067 -0.60226,0.41656 -1.14254,0.91076 -1.69297,1.39264 -0.6292,0.56102 -1.26595,1.1126 -1.89451,1.67474 -0.74351,0.71794 -1.48443,1.43963 -2.19833,2.18738 -0.74859,0.73396 -1.44715,1.51259 -2.10751,2.32663 -0.69677,0.86797 -1.36417,1.76117 -2.07495,2.61721 -0.68136,0.7503 -1.30969,1.55086 -2.02027,2.27383 -0.67034,0.66387 -1.38943,1.27139 -2.11382,1.87478 -0.685,0.56307 -1.3847,1.10488 -2.09624,1.63379 -0.65347,0.55294 -1.37098,1.01822 -2.08755,1.48337 -0.71256,0.50739 -1.44879,0.97748 -2.11896,1.54134 -0.69206,0.658 -1.4541,1.23608 -2.16538,1.87221 -0.78601,0.73062 -1.57678,1.45417 -2.38041,2.1653 -0.84736,0.70906 -1.74781,1.34528 -2.5753,2.07845 -0.73677,0.67236 -1.57956,1.20928 -2.36373,1.82225 -0.58537,0.45048 -1.17861,0.89196 -1.74575,1.36554 -0.52938,0.46082 -1.02817,0.9559 -1.56542,1.40759 -0.47643,0.44022 -0.96438,0.86723 -1.44473,1.30316 -1.93579,1.41819 -4.05248,2.50592 -6.13693,3.71331 -0.0997,0.046 -0.39417,0.19319 -0.29923,0.13793 1.30345,-0.75869 5.24215,-2.98538 3.93278,-2.23697 -1.58213,0.90432 -3.15887,1.81848 -4.75447,2.69872 -1.41735,0.7819 2.80648,-1.61425 4.21966,-2.40368 0.0931,-0.052 -0.17156,0.12682 -0.25734,0.19024 -15.28849,9.32413 2.8039,-2.10384 -0.95735,0.6243 -1.74518,1.0507 -0.12855,0.0784 -4.87961,2.86677 10.78917,-6.30044 -0.38285,0.3882 -1.17626,0.59483 -0.17104,-0.0116 -0.63069,0.14733 -0.78206,0.0651 -0.0659,-0.0358 -0.10637,-0.10582 -0.15955,-0.15873 0,0 4.4185,-2.88922 4.4185,-2.88922 v 0 c -0.006,-0.0268 -0.036,-0.0608 -0.017,-0.0805 0.0469,-0.0485 0.63341,-0.0505 0.67256,-0.16551 1.67147,-0.7762 0.10273,-0.0537 -4.13553,2.41288 -0.0585,0.0341 0.12498,-0.0541 0.18107,-0.092 0.71753,-0.48548 -0.41913,0.19929 0.39721,-0.27366 1.55197,-0.89914 3.10279,-1.80028 4.65419,-2.70042 -1.40638,0.82715 -2.80228,1.67243 -4.21913,2.48144 -0.0715,0.0408 0.10968,-0.12496 0.17652,-0.17314 0.14221,-0.1025 0.29184,-0.19455 0.44256,-0.28401 0.61053,-0.3624 11.11653,-6.50061 0.54431,-0.32243 2.02716,-1.29959 -4.07241,2.60612 4.94875,-2.9255 1.36792,-0.83879 -2.76496,1.62905 -4.15456,2.43127 -0.0936,0.054 0.17228,-0.13144 0.26549,-0.1861 4.1706,-2.44598 3.13915,-1.88874 4.97545,-2.87377 -7.65317,4.46439 -4.36837,2.63377 -2.72729,1.46776 0.55455,-0.32337 0.96164,-0.86143 1.46671,-1.25805 0.68452,-0.65692 -0.18695,0.15601 0.53929,-0.4475 1.02854,-0.85471 -0.51516,0.37798 0.46944,-0.50397 0.089,-0.0798 0.19832,-0.13344 0.29748,-0.20016 0.0866,-0.0778 0.17319,-0.15561 0.25978,-0.23342 0.50269,-0.56455 1.17067,-0.96359 1.75905,-1.43141 0.78758,-0.61969 1.61365,-1.18286 2.40264,-1.79806 0.81598,-0.75808 1.69172,-1.42907 2.58537,-2.09223 0.80194,-0.69583 1.57465,-1.41968 2.36517,-2.1262 0.64523,-0.69708 1.4454,-1.23802 2.15644,-1.86752 0.58321,-0.67202 1.36427,-1.1069 2.08672,-1.61521 0.67424,-0.53746 1.47391,-0.88028 2.1019,-1.48192 0.35548,-0.26204 0.69887,-0.54923 1.06131,-0.80103 0.12372,-0.0859 0.26647,-0.14449 0.38254,-0.24055 0.11255,-0.0932 0.18641,-0.22711 0.29738,-0.32216 0.11,-0.0942 0.24063,-0.16116 0.36095,-0.24174 0.7332,-0.60578 1.47305,-1.17883 2.13539,-1.85754 0.79024,-0.6401 1.36255,-1.49571 2.04869,-2.23482 0.78247,-0.77512 1.38065,-1.73811 2.08256,-2.58594 0.6626,-0.82707 1.33218,-1.64316 2.09267,-2.38058 0.52212,-0.4959 0.27657,-0.22971 0.73497,-0.80016 0.12397,-0.12325 0.28514,-0.20391 0.41262,-0.32351 0.3581,-0.33596 0.6172,-0.77499 1.02548,-1.0606 0.41667,-0.43934 0.93112,-0.76315 1.3508,-1.1937 0.0854,-0.0876 0.13515,-0.2067 0.22322,-0.2917 0.0827,-0.0798 0.18858,-0.13116 0.28287,-0.19674 0.18743,-0.17156 0.36081,-0.35977 0.56144,-0.51562 0.0885,-0.0687 0.19886,-0.10685 0.2842,-0.17949 0.2863,-0.2437 0.44288,-0.61861 0.83596,-0.73122 0.32873,-0.28363 0.68618,-0.48033 1.03849,-0.73128 1.69457,-1.20703 3.52786,-2.21017 5.3741,-3.17509 0,0 -4.09257,3.28012 -4.09257,3.28012 z"
       inkscape:connector-curvature="0" />
    <g
       id="f-thursday"
       inkscape:label="#f-thursday"
       transform="translate(0,-6.3500002)">
      <path
         style="stroke-width:0.15203556"
         inkscape:connector-curvature="0"
         d="m 186.51686,111.48506 c -0.60835,-2.69617 -2.93203,-4.87969 -5.7743,-5.43032 -8.28248,-1.58542 -16.62978,-1.40979 -24.62305,0.20886 -0.12466,0.0285 -0.24932,0.0332 -0.369,0.0807 -11.15467,2.33067 -21.57134,7.55213 -29.91366,15.49825 -8.34232,7.94137 -13.83239,17.86215 -16.28073,28.47596 -0.0499,0.11393 -0.0598,0.23734 -0.0898,0.35601 -1.70037,7.6091 -1.88487,15.55522 -0.2194,23.43013 0.57344,2.71042 2.8672,4.91767 5.70948,5.49203 4.22351,0.85917 8.46697,1.28163 12.67553,1.28163 15.80203,0 31.08049,-5.91924 42.54432,-16.82735 8.34232,-7.94137 13.80247,-17.83842 16.21092,-28.42375 0.15957,-0.32753 0.24932,-0.66929 0.24932,-1.0253 1.56076,-7.51891 1.6206,-15.35111 -0.11967,-23.11685 z m -70.52324,63.46927 c -0.90754,-0.18513 -1.67046,-0.91613 -1.85496,-1.7848 -1.20173,-5.6724 -1.30645,-11.37804 -0.5884,-16.94602 l 20.4494,19.46657 c -5.9239,0.65505 -11.98741,0.49366 -18.00604,-0.73575 z m 50.65726,-14.25935 c -7.46471,7.10594 -16.72952,11.81475 -26.64755,13.99827 l -25.38099,-24.16113 c 2.33864,-9.44136 7.29517,-18.24664 14.73992,-25.33359 7.44476,-7.08221 16.67467,-11.83849 26.57275,-14.06473 l 25.41091,24.18962 c -2.29376,9.4461 -7.23034,18.26088 -14.69504,25.37156 z m 15.74219,-31.08669 -20.48929,-19.50454 c 2.25387,-0.26582 4.52271,-0.4462 6.8065,-0.4462 3.66503,0 7.36497,0.34652 11.03998,1.04904 0.9175,0.17563 1.6904,0.90189 1.88487,1.77055 1.28152,5.72937 1.45106,11.49672 0.75794,17.13115 z"
         id="path18846" />
      <path
         inkscape:connector-curvature="0"
         id="path18884"
         d="m 127.4793,161.60723 c 82.39044,-79.280019 0,0 0,0 z"
         style="fill:#000000;fill-opacity:1;stroke:#000000;stroke-width:2.79154468;stroke-linecap:butt;stroke-linejoin:miter;stroke-miterlimit:4;stroke-dasharray:none;stroke-opacity:1" />
    </g>
    <text
       id="text19249"
       y="10.970941"
       x="10.451063"
       style="font-style:normal;font-weight:normal;font-size:10.58333302px;line-height:1.25;font-family:sans-serif;letter-spacing:0px;word-spacing:0px;fill:#000000;fill-opacity:1;stroke:none;stroke-width:0.26458335"
       xml:space="preserve"><tspan
         style="font-style:normal;font-variant:normal;font-weight:normal;font-stretch:normal;font-family:'Songti SC';-inkscape-font-specification:'Songti SC';stroke-width:0.26458335"
         y="10.970941"
         x="10.451063"
         id="tspan19247"
         sodipodi:role="line">Monday</tspan></text>
    <text
       id="text19253"
       y="10.845592"
       x="122.11241"
       style="font-style:normal;font-variant:normal;font-weight:normal;font-stretch:normal;font-size:10.58333302px;line-height:1.25;font-family:'Songti SC';-inkscape-font-specification:'Songti SC';letter-spacing:0px;word-spacing:0px;fill:#000000;fill-opacity:1;stroke:none;stroke-width:0.26458335"
       xml:space="preserve"><tspan
         style="font-style:normal;font-variant:normal;font-weight:normal;font-stretch:normal;font-family:'Songti SC';-inkscape-font-specification:'Songti SC';stroke-width:0.26458335"
         y="10.845592"
         x="122.11241"
         id="tspan19251"
         sodipodi:role="line">Tuesday</tspan></text>
    <text
       id="text19257"
       y="98.57605"
       x="6.6006675"
       style="font-style:normal;font-weight:normal;font-size:10.58333302px;line-height:1.25;font-family:sans-serif;letter-spacing:0px;word-spacing:0px;fill:#000000;fill-opacity:1;stroke:none;stroke-width:0.26458335"
       xml:space="preserve"><tspan
         style="font-style:normal;font-variant:normal;font-weight:normal;font-stretch:normal;font-family:'Songti SC';-inkscape-font-specification:'Songti SC';stroke-width:0.26458335"
         y="98.57605"
         x="6.6006675"
         id="tspan19255"
         sodipodi:role="line">Wednesday</tspan></text>
    <text
       id="text19261"
       y="100.4996"
       x="101.84248"
       style="font-style:normal;font-weight:normal;font-size:10.58333302px;line-height:1.25;font-family:sans-serif;letter-spacing:0px;word-spacing:0px;fill:#000000;fill-opacity:1;stroke:none;stroke-width:0.26458335"
       xml:space="preserve"><tspan
         style="font-style:normal;font-variant:normal;font-weight:normal;font-stretch:normal;font-family:'Songti SC';-inkscape-font-specification:'Songti SC';stroke-width:0.26458335"
         y="100.4996"
         x="101.84248"
         id="tspan19259"
         sodipodi:role="line">Thursday</tspan></text>
    <text
       transform="scale(1.0337074,0.96739173)"
       id="text19265"
       y="207.72069"
       x="1.7113436"
       style="font-style:normal;font-weight:normal;font-size:12.26701736px;line-height:1.25;font-family:sans-serif;letter-spacing:0px;word-spacing:0px;fill:#000000;fill-opacity:1;stroke:none;stroke-width:0.30667543"
       xml:space="preserve"><tspan
         style="font-style:normal;font-variant:normal;font-weight:normal;font-stretch:normal;font-family:'Songti SC';-inkscape-font-specification:'Songti SC';stroke-width:0.30667543"
         y="207.72069"
         x="1.7113436"
         id="tspan19263"
         sodipodi:role="line">Friday</tspan></text>
    <g
       id="g18928"
       transform="matrix(0.1558263,0,0,0.14833703,15.899296,189.15642)">
      <g
         id="g18894" />
      <g
         id="g18896" />
      <g
         id="g18898" />
      <g
         id="g18900" />
      <g
         id="g18902" />
      <g
         id="g18904" />
      <g
         id="g18906" />
      <g
         id="g18908" />
      <g
         id="g18910" />
      <g
         id="g18912" />
      <g
         id="g18914" />
      <g
         id="g18916" />
      <g
         id="g18918" />
      <g
         id="g18920" />
      <g
         id="g18922" />
      <path
         style="opacity:1;fill:none;fill-opacity:1;stroke:none;stroke-width:5.8881278;stroke-miterlimit:4;stroke-dasharray:none;stroke-opacity:1"
         id="path18924"
         d="m 316.98094,159.53704 c -10.40293,6.9255 0.27489,-0.21489 24.9985,-15.09193 0.8257,-0.49684 -1.61768,1.05379 -2.41249,1.60363 -2.22263,1.53758 -4.42207,3.12618 -6.60649,4.72351 -3.865,2.80821 -7.33214,6.13985 -10.86453,9.38834 -4.03781,3.7821 -8.12406,7.50048 -12.1578,11.29011 -4.77138,4.83993 -9.52618,9.70514 -14.10759,14.74606 -4.80399,4.94788 -9.28693,10.19692 -13.5247,15.68472 -4.47145,5.85134 -8.75442,11.87279 -13.3158,17.64369 -4.37254,5.05805 -8.40482,10.45496 -12.96492,15.32878 -4.30183,4.47541 -8.91649,8.57095 -13.5652,12.63866 -4.39592,3.79588 -8.88616,7.44845 -13.45243,11.01405 -4.19359,3.72757 -8.79809,6.86426 -13.39664,10.00003 -4.57276,3.42052 -9.29746,6.58957 -13.5982,10.39075 -4.44121,4.43583 -9.33156,8.33292 -13.89613,12.62132 -5.04414,4.92544 -10.11882,9.80315 -15.27604,14.59721 -5.43783,4.78003 -11.21642,9.06907 -16.52671,14.01163 -4.72815,4.53264 -10.13671,8.15227 -15.16904,12.28454 -3.75658,3.03688 -7.56362,6.0131 -11.20315,9.20563 -3.3973,3.10663 -6.59822,6.44411 -10.04598,9.48918 -3.05743,2.96766 -6.18877,5.84633 -9.2714,8.78513 -12.422755,9.56055 -26.006355,16.89342 -39.383085,25.03293 -0.6401,0.30994 -2.529545,1.30232 -1.920295,0.9298 8.364795,-5.11464 33.64094,-20.12564 25.23823,-15.08029 -10.153155,6.09639 -20.27173,12.2591 -30.511335,18.19314 -9.095675,5.27109 18.010295,-10.8823 27.07923,-16.20417 0.59751,-0.35064 -1.10095,0.85498 -1.651445,1.28248 -98.1123252,62.85772 17.9937,-14.18282 -6.143675,4.20868 -11.19954,7.08316 -0.824965,0.52838 -31.31441,19.32604 69.238395,-42.47381 -2.45689,2.61705 -7.54852,4.01 -1.09764,-0.0781 -4.047385,0.99322 -5.018765,0.43908 -0.42285,-0.24122 -0.682605,-0.71337 -1.023915,-1.07006 0,0 28.355245,-19.47739 28.355245,-19.47739 v 0 c -0.0363,-0.18087 -0.23126,-0.40982 -0.10903,-0.54257 0.30088,-0.32684 4.064875,-0.34049 4.316065,-1.11579 10.726495,-5.23264 0.65931,-0.36217 -26.53928,16.2662 -0.37554,0.22959 0.80205,-0.36455 1.16197,-0.62037 4.6047,-3.27282 -2.68974,1.3435 2.549075,-1.84486 9.959615,-6.06147 19.91182,-12.13642 29.867725,-18.20464 -9.025255,5.57612 -17.983325,11.2745 -27.07577,16.72836 -0.45908,0.27537 0.70384,-0.84237 1.13279,-1.16715 0.912635,-0.691 1.872825,-1.31157 2.840065,-1.91469 3.918035,-2.44307 71.33919,-43.82321 3.493065,-2.17358 13.0091,-8.76111 -26.134275,17.56887 31.75805,-19.72203 8.77853,-5.65461 -17.74382,10.98209 -26.66144,16.39021 -0.60056,0.36422 1.10563,-0.88606 1.7038,-1.25459 26.76436,-16.48932 20.14511,-12.73275 31.9294,-19.37324 -49.113385,30.09626 -28.033565,17.75529 -17.502115,9.8948 3.558745,-2.18 6.171255,-5.80728 9.41248,-8.48104 4.39279,-4.42858 -1.19975,1.05169 3.460825,-3.01677 6.60053,-5.76197 -3.305985,2.54806 3.012595,-3.39748 0.57145,-0.53771 1.272675,-0.89958 1.909025,-1.34936 0.5557,-0.52453 1.1114,-1.04905 1.66711,-1.57356 3.225985,-3.80588 7.512675,-6.496 11.288555,-9.64973 5.05419,-4.17761 10.35542,-7.97417 15.41869,-12.12144 5.23646,-5.11057 10.85642,-9.63395 16.59138,-14.10461 5.14637,-4.69088 10.10514,-9.57061 15.17819,-14.33358 4.14072,-4.6993 9.27571,-8.346 13.83877,-12.5897 3.74268,-4.53034 8.75509,-7.46207 13.39134,-10.88875 4.32687,-3.62323 9.45865,-5.93434 13.48873,-9.99022 2.28122,-1.76656 4.4849,-3.70259 6.81085,-5.40011 0.79393,-0.57942 1.71004,-0.97408 2.4549,-1.62166 0.72231,-0.62798 1.19629,-1.531 1.90841,-2.17176 0.70593,-0.63521 1.54424,-1.08647 2.31638,-1.62971 4.7052,-4.08378 9.45313,-7.94693 13.70361,-12.5224 5.07134,-4.31515 8.74405,-10.08322 13.1473,-15.06582 5.02143,-5.22544 8.86021,-11.71731 13.36459,-17.43287 4.25223,-5.57563 8.54914,-11.0772 13.42952,-16.04849 3.35069,-3.34305 1.77485,-1.54854 4.71661,-5.39418 0.79558,-0.8309 1.82985,-1.37464 2.64798,-2.18093 2.29806,-2.2648 3.96077,-5.22452 6.58089,-7.14992 2.67395,-2.96174 5.97538,-5.14472 8.66861,-8.04718 0.54832,-0.59093 0.86732,-1.39347 1.43253,-1.96651 0.53049,-0.53786 1.21016,-0.88422 1.81524,-1.32632 1.20283,-1.15656 2.31547,-2.42533 3.60304,-3.47599 0.56794,-0.46345 1.27612,-0.72029 1.8238,-1.21001 1.83728,-1.64285 2.84216,-4.17029 5.36472,-4.92945 2.10955,-1.91207 4.40345,-3.23807 6.66438,-4.92984 10.87474,-8.13711 22.63971,-14.89966 34.48776,-21.40458 0,0 -26.26368,22.11263 -26.26368,22.11263 z"
         inkscape:connector-curvature="0" />
      <g
         id="f-friday"
         inkscape:label="#f-friday"
         transform="translate(-81.501001,53.509904)">
        <path
           inkscape:connector-curvature="0"
           d="M 503.405,44.033 C 499.501,25.857 484.589,11.137 466.349,7.425 413.197,-3.263 359.629,-2.079 308.333,8.833 c -0.8,0.192 -1.6,0.224 -2.368,0.544 -71.584,15.712 -138.432,50.912 -191.968,104.48 -53.536,53.536 -88.768,120.416 -104.48,191.968 -0.32,0.768 -0.384,1.6 -0.576,2.4 -10.912,51.296 -12.096,104.864 -1.408,157.952 3.68,18.272 18.4,33.152 36.64,37.024 27.104,5.792 54.336,8.64 81.344,8.64 101.408,0 199.456,-39.904 273.024,-113.44 53.536,-53.536 88.576,-120.256 104.032,-191.616 1.024,-2.208 1.6,-4.512 1.6,-6.912 10.016,-50.688 10.4,-103.488 -0.768,-155.84 z M 50.829,471.905 c -5.824,-1.248 -10.72,-6.176 -11.904,-12.032 -7.712,-38.24 -8.384,-76.704 -3.776,-114.24 l 131.232,131.232 c -38.016,4.416 -76.928,3.328 -115.552,-4.96 z m 325.088,-96.128 c -47.904,47.904 -107.36,79.648 -171.008,94.368 L 42.029,307.265 C 57.037,243.617 88.845,184.257 136.621,136.481 184.397,88.737 243.629,56.673 307.149,41.665 l 163.072,163.072 c -14.72,63.68 -46.4,123.104 -94.304,171.04 z M 476.941,166.209 345.453,34.721 c 14.464,-1.792 29.024,-3.008 43.68,-3.008 23.52,0 47.264,2.336 70.848,7.072 5.888,1.184 10.848,6.08 12.096,11.936 8.224,38.624 9.312,77.504 4.864,115.488 z"
           id="path18888" />
        <path
           inkscape:connector-curvature="0"
           id="path18926"
           d="m 124.53727,381.92679 c 528.73255,-534.45869 0,0 0,0 z"
           style="fill:#000000;fill-opacity:1;stroke:#000000;stroke-width:18.36112976;stroke-linecap:butt;stroke-linejoin:miter;stroke-miterlimit:4;stroke-dasharray:none;stroke-opacity:1" />
      </g>
      <flowRoot
         xml:space="preserve"
         id="flowRoot19356"
         style="font-style:normal;font-variant:normal;font-weight:normal;font-stretch:normal;font-size:21.42770004px;line-height:1.25;font-family:'Songti SC';-inkscape-font-specification:'Songti SC';letter-spacing:0px;word-spacing:0px;fill:#000000;fill-opacity:1;stroke:none"
         transform="matrix(2.0518779,-0.01473165,0.01007877,2.7659444,-237.44151,-2328.1277)"><flowRegion
           id="flowRegion19358"
           style="font-size:21.42770004px"><rect
             id="rect19360"
             width="402.24515"
             height="262.06848"
             x="356.57211"
             y="785.60895"
             style="font-size:21.42770004px" /></flowRegion><flowPara
           id="flowPara19385" /></flowRoot>      <flowRoot
         xml:space="preserve"
         id="flowRoot19391"
         style="font-style:normal;font-variant:normal;font-weight:normal;font-stretch:normal;font-size:40px;line-height:1.25;font-family:'Songti SC';-inkscape-font-specification:'Songti SC';letter-spacing:0px;word-spacing:0px;fill:#000000;fill-opacity:1;stroke:none"><flowRegion
           id="flowRegion19393"><rect
             id="rect19395"
             width="247.39522"
             height="197.50038"
             x="415.79028"
             y="816.91382" /></flowRegion><flowPara
           id="flowPara19397" /></flowRoot>      <text
         xml:space="preserve"
         style="font-style:normal;font-variant:normal;font-weight:normal;font-stretch:normal;font-size:69.61090851px;line-height:1.25;font-family:'Songti SC';-inkscape-font-specification:'Songti SC';letter-spacing:0px;word-spacing:0px;fill:#000000;fill-opacity:1;stroke:none;stroke-width:1.74027276"
         x="633.48407"
         y="10.610237"
         id="text19426"
         transform="scale(0.97567328,1.0249333)"><tspan
           sodipodi:role="line"
           id="tspan19424"
           x="633.48407"
           y="79.176979"
           style="stroke-width:1.74027276" /></text>
      <text
         xml:space="preserve"
         style="font-style:normal;font-variant:normal;font-weight:normal;font-stretch:normal;font-size:69.61090851px;line-height:1.25;font-family:'Songti SC';-inkscape-font-specification:'Songti SC';letter-spacing:0px;word-spacing:0px;fill:#000000;fill-opacity:1;stroke:none;stroke-width:1.74027276"
         x="445.91406"
         y="-27.355377"
         id="text19430"
         transform="scale(0.97567325,1.0249333)"><tspan
           sodipodi:role="line"
           x="445.91406"
           y="-27.355377"
           style="font-style:normal;font-variant:normal;font-weight:normal;font-stretch:normal;font-size:46.40727234px;line-height:0;font-family:'Songti SC';-inkscape-font-specification:'Songti SC';stroke-width:1.74027276"
           id="tspan19432">-Lace length: timespan</tspan><tspan
           sodipodi:role="line"
           x="445.91406"
           y="59.658257"
           style="font-style:normal;font-variant:normal;font-weight:normal;font-stretch:normal;font-size:46.40727234px;line-height:0;font-family:'Songti SC';-inkscape-font-specification:'Songti SC';stroke-width:1.74027276"
           id="tspan19434" /><tspan
           sodipodi:role="line"
           x="445.91406"
           y="146.67189"
           style="font-style:normal;font-variant:normal;font-weight:normal;font-stretch:normal;font-size:46.40727234px;line-height:0;font-family:'Songti SC';-inkscape-font-specification:'Songti SC';stroke-width:1.74027276"
           id="tspan19436">-Lace color: source</tspan><tspan
           sodipodi:role="line"
           x="445.91406"
           y="233.68553"
           style="font-style:normal;font-variant:normal;font-weight:normal;font-stretch:normal;font-size:46.40727234px;line-height:0;font-family:'Songti SC';-inkscape-font-specification:'Songti SC';stroke-width:1.74027276"
           id="tspan19438">   &gt;blue: ESPN</tspan><tspan
           sodipodi:role="line"
           x="445.91406"
           y="320.69916"
           style="font-style:normal;font-variant:normal;font-weight:normal;font-stretch:normal;font-size:46.40727234px;line-height:0;font-family:'Songti SC';-inkscape-font-specification:'Songti SC';stroke-width:1.74027276"
           id="tspan19440">   &gt;black: other</tspan><tspan
           sodipodi:role="line"
           x="445.91406"
           y="407.7128"
           style="font-style:normal;font-variant:normal;font-weight:normal;font-stretch:normal;font-size:46.40727234px;line-height:0;font-family:'Songti SC';-inkscape-font-specification:'Songti SC';stroke-width:1.74027276"
           id="tspan19444">-Symbol: article type               </tspan><tspan
           sodipodi:role="line"
           x="445.91406"
           y="494.72644"
           style="font-style:normal;font-variant:normal;font-weight:normal;font-stretch:normal;font-size:46.40727234px;line-height:0;font-family:'Songti SC';-inkscape-font-specification:'Songti SC';stroke-width:1.74027276"
           id="tspan213">   &gt;circle: game preview</tspan><tspan
           sodipodi:role="line"
           x="445.91406"
           y="581.74005"
           style="font-style:normal;font-variant:normal;font-weight:normal;font-stretch:normal;font-size:46.40727234px;line-height:0;font-family:'Songti SC';-inkscape-font-specification:'Songti SC';stroke-width:1.74027276"
           id="tspan19446">   &gt;tiangle: player feature</tspan><tspan
           sodipodi:role="line"
           x="445.91406"
           y="668.75372"
           style="font-style:normal;font-variant:normal;font-weight:normal;font-stretch:normal;font-size:46.40727234px;line-height:0;font-family:'Songti SC';-inkscape-font-specification:'Songti SC';stroke-width:1.74027276"
           id="tspan19448">   &gt;star: statistics</tspan><tspan
           sodipodi:role="line"
           x="445.91406"
           y="755.76733"
           style="font-style:normal;font-variant:normal;font-weight:normal;font-stretch:normal;font-size:46.40727234px;line-height:0;font-family:'Songti SC';-inkscape-font-specification:'Songti SC';stroke-width:1.74027276"
           id="tspan19462" /></text>
      <text
         xml:space="preserve"
         style="font-style:normal;font-weight:normal;font-size:69.61090851px;line-height:1.25;font-family:sans-serif;letter-spacing:0px;word-spacing:0px;fill:#000000;fill-opacity:1;stroke:none;stroke-width:1.74027276"
         x="456.82248"
         y="97.813057"
         id="text209"
         transform="scale(0.97567325,1.0249333)"><tspan
           sodipodi:role="line"
           id="tspan207"
           x="456.82248"
           y="97.813057"
           style="font-style:normal;font-variant:normal;font-weight:normal;font-stretch:normal;font-size:34.80545425px;font-family:'Songti SC';-inkscape-font-specification:'Songti SC';stroke-width:1.74027276">0-9 minutes   10-25 minutes   26-40 minutes   50 or more minutes</tspan></text>
      <flowRoot
         xml:space="preserve"
         id="flowRoot266"
         style="font-style:normal;font-weight:normal;font-size:14.79616547px;line-height:1.25;font-family:sans-serif;letter-spacing:0px;word-spacing:0px;fill:#000000;fill-opacity:1;stroke:none"
         transform="matrix(3.1642235,0,0,4.135642,-1111.5308,-3321.5341)"><flowRegion
           id="flowRegion268"
           style="font-size:14.79616547px"><rect
             id="rect270"
             width="180.86877"
             height="288.97424"
             x="617.44855"
             y="829.38751"
             style="font-size:14.79616547px" /></flowRegion><flowPara
           id="flowPara274"
           style="font-style:normal;font-variant:normal;font-weight:normal;font-stretch:normal;font-size:12.31550503px;font-family:'Songti SC';-inkscape-font-specification:'Songti SC'">-Color of symbol: team</flowPara><flowPara
           style="font-style:normal;font-variant:normal;font-weight:normal;font-stretch:normal;font-size:12.31550503px;font-family:'Songti SC';-inkscape-font-specification:'Songti SC'"
           id="flowPara294"> &gt;maroon: Virginia Tech  </flowPara><flowPara
           style="font-style:normal;font-variant:normal;font-weight:normal;font-stretch:normal;font-size:12.31550503px;font-family:'Songti SC';-inkscape-font-specification:'Songti SC'"
           id="flowPara286">&gt;blue: Old Dominion       </flowPara><flowPara
           style="font-style:normal;font-variant:normal;font-weight:normal;font-stretch:normal;font-size:12.31550503px;font-family:'Songti SC';-inkscape-font-specification:'Songti SC'"
           id="flowPara288">&gt;orange: Clemson       </flowPara><flowPara
           style="font-style:normal;font-variant:normal;font-weight:normal;font-stretch:normal;font-size:12.31550503px;font-family:'Songti SC';-inkscape-font-specification:'Songti SC'"
           id="flowPara290">&gt;green: other</flowPara><flowPara
           id="flowPara276"
           style="font-style:normal;font-variant:normal;font-weight:normal;font-stretch:normal;font-size:12.31550503px;font-family:'Songti SC';-inkscape-font-specification:'Songti SC'" /><flowPara
           id="flowPara278"
           style="font-style:normal;font-variant:normal;font-weight:normal;font-stretch:normal;font-size:12.31550503px;font-family:'Songti SC';-inkscape-font-specification:'Songti SC'" /><flowPara
           id="flowPara280"
           style="font-style:normal;font-variant:normal;font-weight:normal;font-stretch:normal;font-size:12.31550503px;font-family:'Songti SC';-inkscape-font-specification:'Songti SC'" /><flowPara
           id="flowPara282"
           style="font-style:normal;font-variant:normal;font-weight:normal;font-stretch:normal;font-size:12.31550503px;font-family:'Songti SC';-inkscape-font-specification:'Songti SC'" /></flowRoot>      <flowRoot
         xml:space="preserve"
         id="flowRoot217"
         style="font-style:normal;font-weight:normal;font-size:25.33333397px;line-height:1.25;font-family:sans-serif;letter-spacing:0px;word-spacing:0px;fill:#000000;fill-opacity:1;stroke:none"
         transform="matrix(5.9814901,0,0,60.913491,-3101.8082,-62857.177)"><flowRegion
           id="flowRegion219"
           style="font-size:25.33333397px"><rect
             id="rect221"
             width="124.73708"
             height="95.631767"
             x="669.42236"
             y="1031.0458"
             style="font-size:25.33333397px" /></flowRegion><flowPara
           id="flowPara223"
           style="font-style:normal;font-variant:normal;font-weight:normal;font-stretch:normal;font-size:4.69843054px;line-height:0;font-family:'Songti SC';-inkscape-font-specification:'Songti SC'" /></flowRoot>      <flowRoot
         xml:space="preserve"
         id="flowRoot225"
         style="font-style:normal;font-weight:normal;font-size:40px;line-height:1.25;font-family:sans-serif;letter-spacing:0px;word-spacing:0px;fill:#000000;fill-opacity:1;stroke:none"
         transform="matrix(1.6979376,0,0,1.7836634,3.0168854,-696.70868)"><flowRegion
           id="flowRegion227"><rect
             id="rect229"
             width="186.37689"
             height="151.16328"
             x="555.80872"
             y="705.25061" /></flowRegion><flowPara
           id="flowPara232"
           style="font-style:normal;font-variant:normal;font-weight:normal;font-stretch:normal;font-size:22.66666603px;line-height:0;font-family:'Songti SC';-inkscape-font-specification:'Songti SC'">football created by: Iconic</flowPara></flowRoot>    </g>
    <path
       style="fill:#008000;fill-opacity:1;stroke:#000000;stroke-width:0;stroke-linecap:butt;stroke-linejoin:miter;stroke-miterlimit:4;stroke-dasharray:none;stroke-opacity:1"
       d="m 67.737042,156.37229 -10.285051,3.37421 6.17862,6.15681 z"
       id="path19034"
       inkscape:connector-curvature="0"
       sodipodi:nodetypes="cccc"
       inkscape:transform-center-x="0.77373519"
       inkscape:transform-center-y="1.3425243" />
    <path
       inkscape:transform-center-y="1.3425243"
       inkscape:transform-center-x="0.77373519"
       sodipodi:nodetypes="cccc"
       inkscape:connector-curvature="0"
       id="path19070"
       d="m 75.097336,149.70951 -10.285051,3.37421 6.17862,6.15681 z"
       style="fill:#0000ff;fill-opacity:1;stroke:#000000;stroke-width:0;stroke-linecap:butt;stroke-linejoin:miter;stroke-miterlimit:4;stroke-dasharray:none;stroke-opacity:1" />
    <path
       style="fill:#0000ff;fill-opacity:1;stroke:#000000;stroke-width:0;stroke-linecap:butt;stroke-linejoin:miter;stroke-miterlimit:4;stroke-dasharray:none;stroke-opacity:1"
       d="m 34.342226,111.53671 -10.285051,3.37421 6.17862,6.15681 z"
       id="path19074"
       inkscape:connector-curvature="0"
       sodipodi:nodetypes="cccc"
       inkscape:transform-center-x="0.77373519"
       inkscape:transform-center-y="1.3425243" />
    <path
       inkscape:transform-center-y="1.3425243"
       inkscape:transform-center-x="0.77373519"
       sodipodi:nodetypes="cccc"
       inkscape:connector-curvature="0"
       id="path19078"
       d="m 26.531626,120.53856 -10.285051,3.37421 6.17862,6.15681 z"
       style="fill:#008000;fill-opacity:1;stroke:#000000;stroke-width:0;stroke-linecap:butt;stroke-linejoin:miter;stroke-miterlimit:4;stroke-dasharray:none;stroke-opacity:1" />
    <path
       inkscape:transform-center-y="0.1804051"
       inkscape:transform-center-x="-0.41952725"
       sodipodi:nodetypes="cccc"
       inkscape:connector-curvature="0"
       id="path19080"
       d="m 52.276285,21.378062 -7.797304,-4.049285 -0.516735,7.467725 z"
       style="fill:#800000;fill-opacity:1;stroke:#000000;stroke-width:0;stroke-linecap:butt;stroke-linejoin:miter;stroke-miterlimit:4;stroke-dasharray:none;stroke-opacity:1" />
    <path
       inkscape:transform-center-y="-0.43275822"
       inkscape:transform-center-x="-0.32939463"
       sodipodi:nodetypes="cccc"
       inkscape:connector-curvature="0"
       id="path19086"
       d="m 84.439634,43.167547 -3.02521,7.923736 6.33675,-0.528355 z"
       style="fill:#800000;fill-opacity:1;stroke:#000000;stroke-width:0;stroke-linecap:butt;stroke-linejoin:miter;stroke-miterlimit:4;stroke-dasharray:none;stroke-opacity:1" />
    <path
       inkscape:transform-center-y="2.389568"
       inkscape:transform-center-x="0.5462013"
       sodipodi:nodetypes="cccc"
       inkscape:connector-curvature="0"
       id="path19088"
       d="m 113.57034,145.13 3.99936,-10.05848 -8.68582,0.79888 z"
       style="fill:#800000;fill-opacity:1;stroke:#000000;stroke-width:0;stroke-linecap:butt;stroke-linejoin:miter;stroke-miterlimit:4;stroke-dasharray:none;stroke-opacity:1" />
    <path
       style="fill:#800000;fill-opacity:1;stroke:#000000;stroke-width:0;stroke-linecap:butt;stroke-linejoin:miter;stroke-miterlimit:4;stroke-dasharray:none;stroke-opacity:1"
       d="m 162.47196,75.342831 -7.52539,5.791817 6.29483,4.226074 z"
       id="path19092"
       inkscape:connector-curvature="0"
       sodipodi:nodetypes="cccc"
       inkscape:transform-center-x="0.082492896"
       inkscape:transform-center-y="-0.80127335" />
    <path
       inkscape:transform-center-y="1.4032863"
       inkscape:transform-center-x="0.7275687"
       sodipodi:nodetypes="cccc"
       inkscape:connector-curvature="0"
       id="path19094"
       d="m 151.2376,165.45639 -10.37068,3.10106 6.01366,6.31803 z"
       style="fill:#800000;fill-opacity:1;stroke:#000000;stroke-width:0;stroke-linecap:butt;stroke-linejoin:miter;stroke-miterlimit:4;stroke-dasharray:none;stroke-opacity:1" />
    <path
       inkscape:transform-center-y="-2.284809"
       inkscape:transform-center-x="-0.13375822"
       sodipodi:nodetypes="cccc"
       inkscape:connector-curvature="0"
       id="path19106"
       d="m 175.66998,61.247607 -5.7457,9.173576 8.68765,0.778714 z"
       style="fill:#800000;fill-opacity:1;stroke:#000000;stroke-width:0;stroke-linecap:butt;stroke-linejoin:miter;stroke-miterlimit:4;stroke-dasharray:none;stroke-opacity:1" />
    <path
       inkscape:transform-center-y="0.0080531956"
       inkscape:transform-center-x="-0.90823665"
       sodipodi:nodetypes="cccc"
       inkscape:connector-curvature="0"
       id="path19110"
       d="m 129.20123,35.109689 8.32802,-6.914603 -8.00754,-3.45847 z"
       style="fill:#800000;fill-opacity:1;stroke:#000000;stroke-width:0;stroke-linecap:butt;stroke-linejoin:miter;stroke-miterlimit:4;stroke-dasharray:none;stroke-opacity:1" />
    <path
       style="fill:#800000;fill-opacity:1;stroke:#000000;stroke-width:0;stroke-linecap:butt;stroke-linejoin:miter;stroke-miterlimit:4;stroke-dasharray:none;stroke-opacity:1"
       d="M 81.943591,50.032949 78.918382,57.956685 85.25513,57.42833 Z"
       id="path19174"
       inkscape:connector-curvature="0"
       sodipodi:nodetypes="cccc"
       inkscape:transform-center-x="-0.32939463"
       inkscape:transform-center-y="-1.4490423" />
    <path
       style="fill:#800000;fill-opacity:1;stroke:#000000;stroke-width:0;stroke-linecap:butt;stroke-linejoin:miter;stroke-miterlimit:4;stroke-dasharray:none;stroke-opacity:1"
       d="m 44.353627,24.255152 -8.396119,-2.588407 0.828122,7.439633 z"
       id="path19176"
       inkscape:connector-curvature="0"
       sodipodi:nodetypes="cccc"
       inkscape:transform-center-x="-0.39333425"
       inkscape:transform-center-y="0.8001581" />
    <path
       inkscape:transform-center-y="0.218672"
       inkscape:transform-center-x="1.0059724"
       sodipodi:nodetypes="cccc"
       inkscape:connector-curvature="0"
       id="path19186"
       d="m 113.70734,42.281997 6.38401,6.153213 3.94321,-5.607681 z"
       style="fill:#800000;fill-opacity:1;stroke:#000000;stroke-width:0;stroke-linecap:butt;stroke-linejoin:miter;stroke-miterlimit:4;stroke-dasharray:none;stroke-opacity:1" />
    <text
       xml:space="preserve"
       style="font-style:normal;font-weight:normal;font-size:10.58333302px;line-height:1.25;font-family:sans-serif;letter-spacing:0px;word-spacing:0px;fill:#000000;fill-opacity:1;stroke:none;stroke-width:0.26458332"
       x="162.60547"
       y="258.3812"
       id="text19241"><tspan
         sodipodi:role="line"
         id="tspan19239"
         x="162.60547"
         y="267.74496"
         style="stroke-width:0.26458332" /></text>
  </g>
  <g
     inkscape:label="Layer 1"
     inkscape:groupmode="layer"
     id="layer1"
     style="opacity:1">
    <path
       style="fill:#000000;fill-opacity:1;stroke:#000002;stroke-width:0.6638962;stroke-linecap:butt;stroke-linejoin:miter;stroke-miterlimit:4;stroke-dasharray:none;stroke-opacity:1"
       d="m 27.909149,66.111066 6.481921,6.133434 1.6e-4,4.3e-5"
       id="path4825"
       inkscape:connector-curvature="0" />
    <path
       inkscape:connector-curvature="0"
       id="path4827"
       d="m 30.122075,60.922774 10.528602,10.029761 2.4e-4,3.8e-5"
       style="fill:#803300;stroke:#aa4400;stroke-width:0.65043908px;stroke-linecap:butt;stroke-linejoin:miter;stroke-opacity:1" />
    <path
       style="fill:none;stroke:#aa4400;stroke-width:0.86463094px;stroke-linecap:butt;stroke-linejoin:miter;stroke-opacity:1"
       d="m 58.898288,30.341468 13.936091,13.389634 3.09e-4,4.9e-5"
       id="path4829"
       inkscape:connector-curvature="0" />
    <ellipse
       ry="2.6260836"
       rx="2.9978287"
       cy="75.044304"
       cx="65.874832"
       id="ellipse8781"
       style="opacity:1;fill:#800000;fill-opacity:1;stroke:#800000;stroke-width:0.34106186;stroke-miterlimit:4;stroke-dasharray:none;stroke-opacity:1" />
    <ellipse
       style="opacity:1;fill:#800000;fill-opacity:1;stroke:#000000;stroke-width:0.45071387;stroke-miterlimit:4;stroke-dasharray:none;stroke-opacity:1"
       id="ellipse8783"
       cx="44.506653"
       cy="85.961449"
       rx="3.8322513"
       ry="3.5875418" />
    <path
       sodipodi:type="star"
       style="opacity:1;fill:#800000;fill-opacity:1;stroke:#800000;stroke-width:1.00699997;stroke-miterlimit:4;stroke-dasharray:none;stroke-opacity:1"
       id="path10292"
       sodipodi:sides="5"
       sodipodi:cx="67.837929"
       sodipodi:cy="76.935165"
       sodipodi:r1="3.9204462"
       sodipodi:r2="1.9602231"
       sodipodi:arg1="0.41822433"
       sodipodi:arg2="1.0465429"
       inkscape:flatsided="false"
       inkscape:rounded="0"
       inkscape:randomized="0"
       d="m 71.420478,78.527409 -2.601327,0.104717 -1.388468,2.202276 -0.903446,-2.441649 -2.523549,-0.639971 2.042966,-1.613739 -0.171171,-2.597799 2.166069,1.444303 2.417759,-0.965558 -0.704262,2.506368 z"
       inkscape:transform-center-x="0.15216037"
       inkscape:transform-center-y="0.18494531"
       transform="matrix(0.88747461,0.0335256,-0.03359164,0.8892229,-0.96145193,10.440833)" />
    <path
       inkscape:transform-center-y="0.22482815"
       inkscape:transform-center-x="0.11176481"
       d="m 62.676635,83.725697 -2.601327,0.104717 -1.388468,2.202276 -0.903446,-2.441649 -2.523549,-0.639971 2.042966,-1.613739 -0.171171,-2.5978 2.166069,1.444304 2.417759,-0.965558 -0.704262,2.506368 z"
       inkscape:randomized="0"
       inkscape:rounded="0"
       inkscape:flatsided="false"
       sodipodi:arg2="1.0465429"
       sodipodi:arg1="0.41822433"
       sodipodi:r2="1.9602231"
       sodipodi:r1="3.9204462"
       sodipodi:cy="82.133453"
       sodipodi:cx="59.094086"
       sodipodi:sides="5"
       id="path10302"
       style="opacity:1;fill:#0000ff;fill-opacity:1;stroke:#0000ff;stroke-width:1.00699997;stroke-miterlimit:4;stroke-dasharray:none;stroke-opacity:1"
       sodipodi:type="star"
       transform="matrix(0.88810762,0,0,0.88985716,-1.5708956,10.589073)" />
    <path
       inkscape:transform-center-y="0.12327778"
       inkscape:transform-center-x="-0.21448648"
       d="m 24.800206,41.695569 -2.601326,0.104717 -1.388468,2.202276 -0.903446,-2.441649 -2.523549,-0.639971 2.042966,-1.613739 -0.171171,-2.5978 2.166068,1.444303 2.41776,-0.965557 -0.704263,2.506367 z"
       inkscape:randomized="0"
       inkscape:rounded="0"
       inkscape:flatsided="false"
       sodipodi:arg2="1.0465429"
       sodipodi:arg1="0.41822433"
       sodipodi:r2="1.9602231"
       sodipodi:r1="3.9204462"
       sodipodi:cy="40.103325"
       sodipodi:cx="21.217657"
       sodipodi:sides="5"
       id="path10312"
       style="opacity:1;fill:#800000;fill-opacity:1;stroke:#800000;stroke-width:1.00699997;stroke-miterlimit:4;stroke-dasharray:none;stroke-opacity:1"
       sodipodi:type="star"
       transform="matrix(0.84734209,-0.2659822,0.26650618,0.84901132,-10.864564,21.574815)" />
    <path
       inkscape:transform-center-y="-0.16652312"
       inkscape:transform-center-x="-0.1685216"
       d="m 20.534568,50.57623 -2.601327,0.104717 -1.388468,2.202276 -0.903446,-2.441649 -2.523549,-0.639971 2.042966,-1.613739 -0.171171,-2.5978 2.166069,1.444303 2.417759,-0.965557 -0.704262,2.506367 z"
       inkscape:randomized="0"
       inkscape:rounded="0"
       inkscape:flatsided="false"
       sodipodi:arg2="1.0465429"
       sodipodi:arg1="0.41822433"
       sodipodi:r2="1.9602231"
       sodipodi:r1="3.9204462"
       sodipodi:cy="48.983986"
       sodipodi:cx="16.952019"
       sodipodi:sides="5"
       id="path10314"
       style="opacity:1;fill:#0000f4;fill-opacity:1;stroke:#0000f4;stroke-width:1.00699997;stroke-miterlimit:4;stroke-dasharray:none;stroke-opacity:1"
       sodipodi:type="star"
       transform="matrix(0.74563083,-0.48246223,0.48341267,0.7470997,-20.189273,27.87728)" />
    <path
       sodipodi:type="star"
       style="opacity:1;fill:#800000;fill-opacity:1;stroke:#900004;stroke-width:1.00699997;stroke-miterlimit:4;stroke-dasharray:none;stroke-opacity:1"
       id="path10318"
       sodipodi:sides="5"
       sodipodi:cx="75.531891"
       sodipodi:cy="70.924004"
       sodipodi:r1="3.9204462"
       sodipodi:r2="1.9602231"
       sodipodi:arg1="0.41822433"
       sodipodi:arg2="1.0465429"
       inkscape:flatsided="false"
       inkscape:rounded="0"
       inkscape:randomized="0"
       d="m 79.11444,72.516248 -2.601326,0.104717 -1.388469,2.202276 -0.903445,-2.441649 -2.52355,-0.639971 2.042966,-1.613739 -0.171171,-2.5978 2.166069,1.444303 2.417759,-0.965557 -0.704262,2.506367 z"
       inkscape:transform-center-x="0.11176474"
       inkscape:transform-center-y="0.22482814"
       transform="matrix(0.88810762,0,0,0.88985716,4.249938,7.9432392)" />
    <path
       inkscape:transform-center-y="0.22482814"
       inkscape:transform-center-x="0.11176472"
       d="m 85.643767,67.222188 -2.601326,0.104717 -1.388468,2.202276 -0.903446,-2.441649 -2.523549,-0.639971 2.042966,-1.613739 -0.171171,-2.5978 2.166068,1.444303 2.41776,-0.965557 -0.704262,2.506367 z"
       inkscape:randomized="0"
       inkscape:rounded="0"
       inkscape:flatsided="false"
       sodipodi:arg2="1.0465429"
       sodipodi:arg1="0.41822433"
       sodipodi:r2="1.9602231"
       sodipodi:r1="3.9204462"
       sodipodi:cy="65.629944"
       sodipodi:cx="82.061218"
       sodipodi:sides="5"
       id="path10320"
       style="opacity:1;fill:#800000;fill-opacity:1;stroke:#900004;stroke-width:1.00699997;stroke-miterlimit:4;stroke-dasharray:none;stroke-opacity:1"
       sodipodi:type="star"
       transform="matrix(0.88810762,0,0,0.88985716,2.6624379,7.9432392)" />
    <path
       inkscape:transform-center-y="0.2248281"
       inkscape:transform-center-x="0.11176495"
       d="m 30.319779,34.147801 -2.601326,0.104717 -1.388468,2.202276 -0.903446,-2.441649 -2.523549,-0.639971 2.042966,-1.613739 -0.171171,-2.5978 2.166068,1.444304 2.41776,-0.965558 -0.704262,2.506368 z"
       inkscape:randomized="0"
       inkscape:rounded="0"
       inkscape:flatsided="false"
       sodipodi:arg2="1.0465429"
       sodipodi:arg1="0.41822433"
       sodipodi:r2="1.9602231"
       sodipodi:r1="3.9204462"
       sodipodi:cy="32.555557"
       sodipodi:cx="26.73723"
       sodipodi:sides="5"
       id="path10322"
       style="opacity:1;fill:#800000;fill-opacity:1;stroke:#900004;stroke-width:1.00699997;stroke-miterlimit:4;stroke-dasharray:none;stroke-opacity:1"
       sodipodi:type="star"
       transform="matrix(0.88810762,0,0,0.88985716,4.249938,4.768239)" />
    <path
       sodipodi:type="star"
       style="opacity:1;fill:#800000;fill-opacity:1;stroke:#900004;stroke-width:1.00699997;stroke-miterlimit:4;stroke-dasharray:none;stroke-opacity:1"
       id="path10324"
       sodipodi:sides="5"
       sodipodi:cx="32.663689"
       sodipodi:cy="26.176931"
       sodipodi:r1="3.9204462"
       sodipodi:r2="1.9602231"
       sodipodi:arg1="0.41822433"
       sodipodi:arg2="1.0465429"
       inkscape:flatsided="false"
       inkscape:rounded="0"
       inkscape:randomized="0"
       d="m 36.246238,27.769175 -2.601327,0.104717 -1.388468,2.202276 -0.903446,-2.441649 -2.523549,-0.639971 2.042966,-1.613739 -0.171171,-2.5978 2.166068,1.444304 2.41776,-0.965558 -0.704262,2.506368 z"
       inkscape:transform-center-x="0.11176492"
       inkscape:transform-center-y="0.2248281"
       transform="matrix(0.88810762,0,0,0.88985716,3.7207713,5.2974057)" />
    <ellipse
       ry="3.5875418"
       rx="3.8322513"
       cy="63.28722"
       cx="14.103848"
       id="ellipse13448"
       style="opacity:1;fill:#800000;fill-opacity:1;stroke:#000000;stroke-width:0.45071387;stroke-miterlimit:4;stroke-dasharray:none;stroke-opacity:1" />
    <path
       inkscape:transform-center-y="0.063274645"
       inkscape:transform-center-x="-0.300385"
       inkscape:connector-curvature="0"
       id="path17830"
       d="m 151.4521,70.403614 -16.98532,-16.9773 -3.7e-4,-5e-5"
       style="fill:#000000;stroke:#000000;stroke-width:0.89520478;stroke-linecap:butt;stroke-linejoin:miter;stroke-miterlimit:4;stroke-dasharray:none;stroke-opacity:1" />
    <path
       inkscape:transform-center-y="0.063274645"
       inkscape:transform-center-x="-0.300385"
       inkscape:connector-curvature="0"
       id="path17832"
       d="m 157.19392,63.57865 -16.98532,-16.977296 -3.7e-4,-5.2e-5"
       style="fill:#aa4400;stroke:#aa4400;stroke-width:0.89520478;stroke-linecap:butt;stroke-linejoin:miter;stroke-miterlimit:4;stroke-dasharray:none;stroke-opacity:1" />
    <path
       inkscape:connector-curvature="0"
       id="path17834"
       d="m 159.21642,36.56384 6.62594,5.919812 1.7e-4,4.2e-5"
       style="fill:#000000;fill-opacity:1;stroke:#000002;stroke-width:0.65943909;stroke-linecap:butt;stroke-linejoin:miter;stroke-miterlimit:4;stroke-dasharray:none;stroke-opacity:1" />
    <path
       transform="matrix(0.88810762,0,0,0.88985716,99.099025,11.880699)"
       inkscape:transform-center-y="0.22482814"
       inkscape:transform-center-x="0.11176474"
       d="m 79.11444,72.516248 -2.601326,0.104717 -1.388469,2.202276 -0.903445,-2.441649 -2.52355,-0.639971 2.042966,-1.613739 -0.171171,-2.5978 2.166069,1.444303 2.417759,-0.965557 -0.704262,2.506367 z"
       inkscape:randomized="0"
       inkscape:rounded="0"
       inkscape:flatsided="false"
       sodipodi:arg2="1.0465429"
       sodipodi:arg1="0.41822433"
       sodipodi:r2="1.9602231"
       sodipodi:r1="3.9204462"
       sodipodi:cy="70.924004"
       sodipodi:cx="75.531891"
       sodipodi:sides="5"
       id="path17844"
       style="opacity:1;fill:#800000;fill-opacity:1;stroke:#900004;stroke-width:1.00699997;stroke-miterlimit:4;stroke-dasharray:none;stroke-opacity:1"
       sodipodi:type="star" />
    <path
       transform="matrix(0.88810762,0,0,0.88985716,51.790235,-20.045794)"
       sodipodi:type="star"
       style="opacity:1;fill:#800000;fill-opacity:1;stroke:#900004;stroke-width:1.00699997;stroke-miterlimit:4;stroke-dasharray:none;stroke-opacity:1"
       id="path17846"
       sodipodi:sides="5"
       sodipodi:cx="82.061218"
       sodipodi:cy="65.629944"
       sodipodi:r1="3.9204462"
       sodipodi:r2="1.9602231"
       sodipodi:arg1="0.41822433"
       sodipodi:arg2="1.0465429"
       inkscape:flatsided="false"
       inkscape:rounded="0"
       inkscape:randomized="0"
       d="m 85.643767,67.222188 -2.601326,0.104717 -1.388468,2.202276 -0.903446,-2.441649 -2.523549,-0.639971 2.042966,-1.613739 -0.171171,-2.5978 2.166068,1.444303 2.41776,-0.965557 -0.704262,2.506367 z"
       inkscape:transform-center-x="0.11176472"
       inkscape:transform-center-y="0.22482814" />
    <path
       transform="matrix(0.88810762,0,0,0.88985716,-48.933419,157.38338)"
       inkscape:transform-center-y="0.22482814"
       inkscape:transform-center-x="0.11176474"
       d="m 79.11444,72.516248 -2.601326,0.104717 -1.388469,2.202276 -0.903445,-2.441649 -2.52355,-0.639971 2.042966,-1.613739 -0.171171,-2.5978 2.166069,1.444303 2.417759,-0.965557 -0.704262,2.506367 z"
       inkscape:randomized="0"
       inkscape:rounded="0"
       inkscape:flatsided="false"
       sodipodi:arg2="1.0465429"
       sodipodi:arg1="0.41822433"
       sodipodi:r2="1.9602231"
       sodipodi:r1="3.9204462"
       sodipodi:cy="70.924004"
       sodipodi:cx="75.531891"
       sodipodi:sides="5"
       id="path17848"
       style="opacity:1;fill:#0000ff;fill-opacity:1;stroke:#0000ff;stroke-width:1.00699997;stroke-miterlimit:4;stroke-dasharray:none;stroke-opacity:1"
       sodipodi:type="star" />
    <path
       transform="matrix(0.88810762,0,0,0.88985716,-17.134382,202.32013)"
       sodipodi:type="star"
       style="opacity:1;fill:#0000ff;fill-opacity:1;stroke:#0000ff;stroke-width:1.00699997;stroke-miterlimit:4;stroke-dasharray:none;stroke-opacity:1"
       id="path17850"
       sodipodi:sides="5"
       sodipodi:cx="82.061218"
       sodipodi:cy="65.629944"
       sodipodi:r1="3.9204462"
       sodipodi:r2="1.9602231"
       sodipodi:arg1="0.41822433"
       sodipodi:arg2="1.0465429"
       inkscape:flatsided="false"
       inkscape:rounded="0"
       inkscape:randomized="0"
       d="m 85.643767,67.222188 -2.601326,0.104717 -1.388468,2.202276 -0.903446,-2.441649 -2.523549,-0.639971 2.042966,-1.613739 -0.171171,-2.5978 2.166068,1.444303 2.41776,-0.965557 -0.704262,2.506367 z"
       inkscape:transform-center-x="0.11176472"
       inkscape:transform-center-y="0.22482814" />
    <path
       style="fill:#000001;fill-opacity:1;stroke:#aa4400;stroke-width:0.89520478;stroke-linecap:butt;stroke-linejoin:miter;stroke-miterlimit:4;stroke-dasharray:none;stroke-opacity:1"
       d="m 47.818542,154.55598 -16.98532,-16.9773 -3.7e-4,-5e-5"
       id="path18812"
       inkscape:connector-curvature="0"
       inkscape:transform-center-x="-0.300385"
       inkscape:transform-center-y="0.063274645" />
    <path
       style="fill:#aa4400;fill-opacity:1;stroke:#aa4402;stroke-width:0.65943909;stroke-linecap:butt;stroke-linejoin:miter;stroke-miterlimit:4;stroke-dasharray:none;stroke-opacity:1"
       d="m 42.955935,135.62715 6.62594,5.91981 1.7e-4,4e-5"
       id="path18814"
       inkscape:connector-curvature="0" />
    <path
       inkscape:transform-center-y="0.063274645"
       inkscape:transform-center-x="-0.300385"
       inkscape:connector-curvature="0"
       id="path18816"
       d="m 62.788319,139.72236 -16.98532,-16.9773 -3.7e-4,-5e-5"
       style="fill:#000000;stroke:#000000;stroke-width:0.89520478;stroke-linecap:butt;stroke-linejoin:miter;stroke-miterlimit:4;stroke-dasharray:none;stroke-opacity:1" />
    <path
       inkscape:connector-curvature="0"
       id="path18818"
       d="m 57.811848,121.0655 6.62594,5.91981 1.7e-4,4e-5"
       style="fill:#aa4400;fill-opacity:1;stroke:#aa4402;stroke-width:0.65943909;stroke-linecap:butt;stroke-linejoin:miter;stroke-miterlimit:4;stroke-dasharray:none;stroke-opacity:1" />
    <path
       transform="matrix(0.88810762,0,0,0.88985716,-5.6526246,97.762466)"
       inkscape:transform-center-y="0.22482815"
       inkscape:transform-center-x="0.11176477"
       d="m 71.420478,78.527409 -2.601327,0.104717 -1.388468,2.202276 -0.903446,-2.441649 -2.523549,-0.639971 2.042966,-1.613739 -0.171171,-2.597799 2.166069,1.444303 2.417759,-0.965558 -0.704262,2.506368 z"
       inkscape:randomized="0"
       inkscape:rounded="0"
       inkscape:flatsided="false"
       sodipodi:arg2="1.0465429"
       sodipodi:arg1="0.41822433"
       sodipodi:r2="1.9602231"
       sodipodi:r1="3.9204462"
       sodipodi:cy="76.935165"
       sodipodi:cx="67.837929"
       sodipodi:sides="5"
       id="path18820"
       style="opacity:1;fill:#0000f4;fill-opacity:1;stroke:#0000f4;stroke-width:1.00699997;stroke-miterlimit:4;stroke-dasharray:none;stroke-opacity:1"
       sodipodi:type="star" />
    <path
       transform="matrix(0.88810762,0,0,0.88985716,-43.085047,65.990378)"
       inkscape:transform-center-y="0.22482815"
       inkscape:transform-center-x="0.11176477"
       d="m 71.420478,78.527409 -2.601327,0.104717 -1.388468,2.202276 -0.903446,-2.441649 -2.523549,-0.639971 2.042966,-1.613739 -0.171171,-2.597799 2.166069,1.444303 2.417759,-0.965558 -0.704262,2.506368 z"
       inkscape:randomized="0"
       inkscape:rounded="0"
       inkscape:flatsided="false"
       sodipodi:arg2="1.0465429"
       sodipodi:arg1="0.41822433"
       sodipodi:r2="1.9602231"
       sodipodi:r1="3.9204462"
       sodipodi:cy="76.935165"
       sodipodi:cx="67.837929"
       sodipodi:sides="5"
       id="path18832"
       style="opacity:1;fill:#0000f4;fill-opacity:1;stroke:#0000f4;stroke-width:1.00699997;stroke-miterlimit:4;stroke-dasharray:none;stroke-opacity:1"
       sodipodi:type="star" />
    <path
       transform="matrix(0.88810762,0,0,0.88985716,25.885492,73.199353)"
       sodipodi:type="star"
       style="opacity:1;fill:#0000ff;fill-opacity:1;stroke:#0000ff;stroke-width:1.00699997;stroke-miterlimit:4;stroke-dasharray:none;stroke-opacity:1"
       id="path18840"
       sodipodi:sides="5"
       sodipodi:cx="59.094086"
       sodipodi:cy="82.133453"
       sodipodi:r1="3.9204462"
       sodipodi:r2="1.9602231"
       sodipodi:arg1="0.41822433"
       sodipodi:arg2="1.0465429"
       inkscape:flatsided="false"
       inkscape:rounded="0"
       inkscape:randomized="0"
       d="m 62.676635,83.725697 -2.601327,0.104717 -1.388468,2.202276 -0.903446,-2.441649 -2.523549,-0.639971 2.042966,-1.613739 -0.171171,-2.5978 2.166069,1.444304 2.417759,-0.965558 -0.704262,2.506368 z"
       inkscape:transform-center-x="0.11176481"
       inkscape:transform-center-y="0.22482815" />
    <path
       inkscape:transform-center-y="0.22482815"
       inkscape:transform-center-x="0.11176481"
       d="m 62.676635,83.725697 -2.601327,0.104717 -1.388468,2.202276 -0.903446,-2.441649 -2.523549,-0.639971 2.042966,-1.613739 -0.171171,-2.5978 2.166069,1.444304 2.417759,-0.965558 -0.704262,2.506368 z"
       inkscape:randomized="0"
       inkscape:rounded="0"
       inkscape:flatsided="false"
       sodipodi:arg2="1.0465429"
       sodipodi:arg1="0.41822433"
       sodipodi:r2="1.9602231"
       sodipodi:r1="3.9204462"
       sodipodi:cy="82.133453"
       sodipodi:cx="59.094086"
       sodipodi:sides="5"
       id="path18844"
       style="opacity:1;fill:#0000ff;fill-opacity:1;stroke:#0000ff;stroke-width:1.00699997;stroke-miterlimit:4;stroke-dasharray:none;stroke-opacity:1"
       sodipodi:type="star"
       transform="matrix(0.88810762,0,0,0.88985716,-14.869617,35.555713)" />
    <path
       style="fill:#803300;stroke:#aa4400;stroke-width:0.65043908px;stroke-linecap:butt;stroke-linejoin:miter;stroke-opacity:1"
       d="m 49.701254,41.343595 10.528602,10.029761 2.4e-4,3.8e-5"
       id="path19136"
       inkscape:connector-curvature="0" />
    <path
       inkscape:connector-curvature="0"
       id="path19138"
       d="m 47.055419,44.518597 10.528602,10.029761 2.4e-4,3.8e-5"
       style="fill:#803300;stroke:#aa4400;stroke-width:0.65043908px;stroke-linecap:butt;stroke-linejoin:miter;stroke-opacity:1" />
    <path
       style="fill:#803300;stroke:#aa4400;stroke-width:0.60799998;stroke-linecap:butt;stroke-linejoin:miter;stroke-miterlimit:4;stroke-dasharray:none;stroke-opacity:1"
       d="m 46.526252,48.751933 6.309619,6.573684 1.44e-4,2.5e-5"
       id="path19140"
       inkscape:connector-curvature="0" />
    <path
       inkscape:connector-curvature="0"
       id="path19142"
       d="m 41.234582,49.810267 10.528602,10.029761 2.4e-4,3.8e-5"
       style="fill:#803300;stroke:#aa4400;stroke-width:0.65043908px;stroke-linecap:butt;stroke-linejoin:miter;stroke-opacity:1" />
    <path
       style="fill:#803300;stroke:#aa4400;stroke-width:0.65043908px;stroke-linecap:butt;stroke-linejoin:miter;stroke-opacity:1"
       d="m 37.001246,53.514436 10.528602,10.029761 2.4e-4,3.8e-5"
       id="path19144"
       inkscape:connector-curvature="0" />
    <path
       inkscape:connector-curvature="0"
       id="path19146"
       d="m 33.297317,57.74781 10.528602,10.029761 2.4e-4,3.8e-5"
       style="fill:#803300;stroke:#aa4400;stroke-width:0.65043908px;stroke-linecap:butt;stroke-linejoin:miter;stroke-opacity:1" />
    <path
       inkscape:connector-curvature="0"
       id="path19156"
       d="m 54.018541,40.991578 6.309619,6.573684 1.44e-4,2.5e-5"
       style="fill:#803300;stroke:#aa4400;stroke-width:0.60799998;stroke-linecap:butt;stroke-linejoin:miter;stroke-miterlimit:4;stroke-dasharray:none;stroke-opacity:1" />
    <path
       style="fill:#803300;stroke:#aa4400;stroke-width:0.60799998;stroke-linecap:butt;stroke-linejoin:miter;stroke-miterlimit:4;stroke-dasharray:none;stroke-opacity:1"
       d="m 56.664376,38.87491 6.309619,6.573684 1.44e-4,2.5e-5"
       id="path19158"
       inkscape:connector-curvature="0" />
    <path
       inkscape:connector-curvature="0"
       id="path19160"
       d="m 55.723286,34.045637 13.936091,13.389634 3.09e-4,4.9e-5"
       style="fill:none;stroke:#aa4400;stroke-width:0.86463094px;stroke-linecap:butt;stroke-linejoin:miter;stroke-opacity:1" />
    <ellipse
       style="opacity:1;fill:#800000;fill-opacity:1;stroke:#800000;stroke-width:0.34106186;stroke-miterlimit:4;stroke-dasharray:none;stroke-opacity:1"
       id="ellipse19162"
       cx="23.953112"
       cy="38.966217"
       rx="2.9978287"
       ry="2.6260836" />
    <path
       style="fill:#803300;stroke:#aa4400;stroke-width:0.65043908px;stroke-linecap:butt;stroke-linejoin:miter;stroke-opacity:1"
       d="m 127.25952,64.567412 10.5286,10.029761 2.4e-4,3.8e-5"
       id="path19164"
       inkscape:connector-curvature="0" />
    <path
       inkscape:connector-curvature="0"
       id="path19166"
       d="m 132.55146,59.804947 10.5286,10.029761 2.4e-4,3.8e-5"
       style="fill:#803300;stroke:#aa4400;stroke-width:0.65043908px;stroke-linecap:butt;stroke-linejoin:miter;stroke-opacity:1" />
    <path
       transform="matrix(0.88810762,0,0,0.88985716,6.8728652,2.6794791)"
       sodipodi:type="star"
       style="opacity:1;fill:#800000;fill-opacity:1;stroke:#900004;stroke-width:1.00699997;stroke-miterlimit:4;stroke-dasharray:none;stroke-opacity:1"
       id="path19168"
       sodipodi:sides="5"
       sodipodi:cx="82.061218"
       sodipodi:cy="65.629944"
       sodipodi:r1="3.9204462"
       sodipodi:r2="1.9602231"
       sodipodi:arg1="0.41822433"
       sodipodi:arg2="1.0465429"
       inkscape:flatsided="false"
       inkscape:rounded="0"
       inkscape:randomized="0"
       d="m 85.643767,67.222188 -2.601326,0.104717 -1.388468,2.202276 -0.903446,-2.441649 -2.523549,-0.639971 2.042966,-1.613739 -0.171171,-2.5978 2.166068,1.444303 2.41776,-0.965557 -0.704262,2.506367 z"
       inkscape:transform-center-x="0.11176472"
       inkscape:transform-center-y="0.22482814" />
    <path
       transform="matrix(0.8439522,-0.27654986,0.27709466,0.84561476,-57.481409,-2.734061)"
       inkscape:transform-center-y="0.10990822"
       inkscape:transform-center-x="-0.22767187"
       d="m 71.420478,78.527409 -2.601327,0.104717 -1.388468,2.202276 -0.903446,-2.441649 -2.523549,-0.639971 2.042966,-1.613739 -0.171171,-2.597799 2.166069,1.444303 2.417759,-0.965558 -0.704262,2.506368 z"
       inkscape:randomized="0"
       inkscape:rounded="0"
       inkscape:flatsided="false"
       sodipodi:arg2="1.0465429"
       sodipodi:arg1="0.41822433"
       sodipodi:r2="1.9602231"
       sodipodi:r1="3.9204462"
       sodipodi:cy="76.935165"
       sodipodi:cx="67.837929"
       sodipodi:sides="5"
       id="path19170"
       style="opacity:1;fill:#800000;fill-opacity:1;stroke:#800000;stroke-width:1.00699997;stroke-miterlimit:4;stroke-dasharray:none;stroke-opacity:1"
       sodipodi:type="star" />
    <path
       transform="matrix(0.8863806,0.05535866,-0.05546771,0.88812674,44.689128,41.630546)"
       sodipodi:type="star"
       style="opacity:1;fill:#800000;fill-opacity:1;stroke:#800000;stroke-width:1.00699997;stroke-miterlimit:4;stroke-dasharray:none;stroke-opacity:1"
       id="path19172"
       sodipodi:sides="5"
       sodipodi:cx="21.217657"
       sodipodi:cy="40.103325"
       sodipodi:r1="3.9204462"
       sodipodi:r2="1.9602231"
       sodipodi:arg1="0.41822433"
       sodipodi:arg2="1.0465429"
       inkscape:flatsided="false"
       inkscape:rounded="0"
       inkscape:randomized="0"
       d="m 24.800206,41.695569 -2.601326,0.104717 -1.388468,2.202276 -0.903446,-2.441649 -2.523549,-0.639971 2.042966,-1.613739 -0.171171,-2.5978 2.166068,1.444303 2.41776,-0.965557 -0.704263,2.506367 z"
       inkscape:transform-center-x="0.17838231"
       inkscape:transform-center-y="0.15879992" />
    <path
       inkscape:transform-center-y="0.16446979"
       inkscape:transform-center-x="-0.17353419"
       d="m 85.643767,67.222188 -2.601326,0.104717 -1.388468,2.202276 -0.903446,-2.441649 -2.523549,-0.639971 2.042966,-1.613739 -0.171171,-2.5978 2.166068,1.444303 2.41776,-0.965557 -0.704262,2.506367 z"
       inkscape:randomized="0"
       inkscape:rounded="0"
       inkscape:flatsided="false"
       sodipodi:arg2="1.0465429"
       sodipodi:arg1="0.41822433"
       sodipodi:r2="1.9602231"
       sodipodi:r1="3.9204462"
       sodipodi:cy="65.629944"
       sodipodi:cx="82.061218"
       sodipodi:sides="5"
       id="path19178"
       style="opacity:1;fill:#ff6600;fill-opacity:1;stroke:#ff6600;stroke-width:1.00699997;stroke-miterlimit:4;stroke-dasharray:none;stroke-opacity:1"
       sodipodi:type="star"
       transform="matrix(0.85698037,-0.23306606,0.23352519,0.85866859,30.800032,12.686924)" />
    <path
       transform="matrix(0.87712749,0.13922111,-0.13949537,0.87885539,89.450945,14.859552)"
       sodipodi:type="star"
       style="opacity:1;fill:#ff6600;fill-opacity:1;stroke:#ff6600;stroke-width:1.00699997;stroke-miterlimit:4;stroke-dasharray:none;stroke-opacity:1"
       id="path19180"
       sodipodi:sides="5"
       sodipodi:cx="82.061218"
       sodipodi:cy="65.629944"
       sodipodi:r1="3.9204462"
       sodipodi:r2="1.9602231"
       sodipodi:arg1="0.41822433"
       sodipodi:arg2="1.0465429"
       inkscape:flatsided="false"
       inkscape:rounded="0"
       inkscape:randomized="0"
       d="m 85.643767,67.222188 -2.601326,0.104717 -1.388468,2.202276 -0.903446,-2.441649 -2.523549,-0.639971 2.042966,-1.613739 -0.171171,-2.5978 2.166068,1.444303 2.41776,-0.965557 -0.704262,2.506367 z"
       inkscape:transform-center-x="0.27846529"
       inkscape:transform-center-y="0.057093299" />
    <path
       inkscape:transform-center-y="-0.14151222"
       inkscape:transform-center-x="-0.19345245"
       d="m 85.643767,67.222188 -2.601326,0.104717 -1.388468,2.202276 -0.903446,-2.441649 -2.523549,-0.639971 2.042966,-1.613739 -0.171171,-2.5978 2.166068,1.444303 2.41776,-0.965557 -0.704262,2.506367 z"
       inkscape:randomized="0"
       inkscape:rounded="0"
       inkscape:flatsided="false"
       sodipodi:arg2="1.0465429"
       sodipodi:arg1="0.41822433"
       sodipodi:r2="1.9602231"
       sodipodi:r1="3.9204462"
       sodipodi:cy="65.629944"
       sodipodi:cx="82.061218"
       sodipodi:sides="5"
       id="path19182"
       style="opacity:1;fill:#ff6600;fill-opacity:1;stroke:#ff6600;stroke-width:1.00699997;stroke-miterlimit:4;stroke-dasharray:none;stroke-opacity:1"
       sodipodi:type="star"
       transform="matrix(0.75675286,-0.46482281,0.4657385,0.75824364,20.936279,45.66782)" />
    <path
       transform="matrix(0.88810762,0,0,0.88985716,71.669388,28.394961)"
       sodipodi:type="star"
       style="opacity:1;fill:#ff6600;fill-opacity:1;stroke:#ff6600;stroke-width:1.00699997;stroke-miterlimit:4;stroke-dasharray:none;stroke-opacity:1"
       id="path19184"
       sodipodi:sides="5"
       sodipodi:cx="82.061218"
       sodipodi:cy="65.629944"
       sodipodi:r1="3.9204462"
       sodipodi:r2="1.9602231"
       sodipodi:arg1="0.41822433"
       sodipodi:arg2="1.0465429"
       inkscape:flatsided="false"
       inkscape:rounded="0"
       inkscape:randomized="0"
       d="m 85.643767,67.222188 -2.601326,0.104717 -1.388468,2.202276 -0.903446,-2.441649 -2.523549,-0.639971 2.042966,-1.613739 -0.171171,-2.5978 2.166068,1.444303 2.41776,-0.965557 -0.704262,2.506367 z"
       inkscape:transform-center-x="0.11176472"
       inkscape:transform-center-y="0.22482814" />
    <path
       style="fill:#803300;stroke:#aa4400;stroke-width:0.60799998;stroke-linecap:butt;stroke-linejoin:miter;stroke-miterlimit:4;stroke-dasharray:none;stroke-opacity:1"
       d="m 130.94015,145.25226 6.30962,6.57369 1.5e-4,2e-5"
       id="path19243"
       inkscape:connector-curvature="0" />
    <path
       inkscape:connector-curvature="0"
       id="path19245"
       d="m 38.410254,228.58532 10.528605,10.02976 2.4e-4,4e-5"
       style="fill:#803300;stroke:#aa4400;stroke-width:0.65043908px;stroke-linecap:butt;stroke-linejoin:miter;stroke-opacity:1" />
    <path
       inkscape:connector-curvature="0"
       id="path199"
       d="m 89.019122,189.41026 0.03225,8.92375 8.2e-5,1.4e-4"
       style="fill:#000000;fill-opacity:1;stroke:#000002;stroke-width:0.6638962;stroke-linecap:butt;stroke-linejoin:miter;stroke-miterlimit:4;stroke-dasharray:none;stroke-opacity:1" />
    <path
       inkscape:connector-curvature="0"
       id="path201"
       d="m 114.12914,204.07622 -0.42727,-14.53495 -1.5e-4,-1.9e-4"
       style="fill:#803300;stroke:#aa4400;stroke-width:0.65043908px;stroke-linecap:butt;stroke-linejoin:miter;stroke-opacity:1"
       inkscape:transform-center-x="0.64495164"
       inkscape:transform-center-y="1.4056564" />
    <path
       inkscape:connector-curvature="0"
       id="path203"
       d="m 147.05773,186.59756 -0.39015,19.32212 1.7e-4,2.7e-4"
       style="fill:none;stroke:#aa4400;stroke-width:0.86463094px;stroke-linecap:butt;stroke-linejoin:miter;stroke-opacity:1" />
    <path
       style="fill:#000000;stroke:#000000;stroke-width:0.89520478;stroke-linecap:butt;stroke-linejoin:miter;stroke-miterlimit:4;stroke-dasharray:none;stroke-opacity:1"
       d="m 179.90716,205.92719 -0.1032,-24.01498 -2.3e-4,-2.9e-4"
       id="path205"
       inkscape:connector-curvature="0"
       inkscape:transform-center-x="-0.168705"
       inkscape:transform-center-y="0.25646464" />
    <flowRoot
       xml:space="preserve"
       id="flowRoot221"
       style="font-style:normal;font-variant:normal;font-weight:normal;font-stretch:normal;font-size:11.39245415px;line-height:1.25;font-family:'Songti SC';-inkscape-font-specification:'Songti SC';letter-spacing:0px;word-spacing:0px;fill:#000000;fill-opacity:1;stroke:none"
       transform="matrix(0.41134397,0,0,0.93242115,-13.850654,-714.83016)"><flowRegion
         id="flowRegion223"
         style="font-style:normal;font-variant:normal;font-weight:normal;font-stretch:normal;font-size:11.39245415px;font-family:'Songti SC';-inkscape-font-specification:'Songti SC'"><rect
           id="rect225"
           width="282.7374"
           height="72.763298"
           x="27.026367"
           y="1045.5985"
           style="font-style:normal;font-variant:normal;font-weight:normal;font-stretch:normal;font-size:11.39245415px;font-family:'Songti SC';-inkscape-font-specification:'Songti SC'" /></flowRegion><flowPara
         id="flowPara231" /></flowRoot>    <flowRoot
       xml:space="preserve"
       id="flowRoot238"
       style="font-style:normal;font-variant:normal;font-weight:normal;font-stretch:normal;font-size:26.66666603px;line-height:1.25;font-family:'Songti SC';-inkscape-font-specification:'Songti SC';letter-spacing:0px;word-spacing:0px;fill:#000000;fill-opacity:1;stroke:none"
       transform="scale(0.26458333)"><flowRegion
         id="flowRegion240"
         style="font-style:normal;font-variant:normal;font-weight:normal;font-stretch:normal;font-size:26.66666603px;font-family:'Songti SC';-inkscape-font-specification:'Songti SC'"><rect
           id="rect242"
           width="308.70853"
           height="102.90284"
           x="8.8202438"
           y="1022.5569"
           style="font-style:normal;font-variant:normal;font-weight:normal;font-stretch:normal;font-size:26.66666603px;font-family:'Songti SC';-inkscape-font-specification:'Songti SC'" /></flowRegion><flowPara
         id="flowPara244">-Position on football: time of day </flowPara></flowRoot>  </g>
</svg>
